<svg id="logo" xmlns="http://www.w3.org/2000/svg" viewBox="0 0 120 40">
  <defs>
    <style>
      .cls-1 {
        fill: #db812d;
      }

      .cls-2, .cls-3 {
        fill: #55245d;
      }

      .cls-3 {
        fill-rule: evenodd;
      }
    </style>
  </defs>
  <path id="Path_200" data-name="Path 200" class="cls-1" d="M366.563,407.761a.259.259,0,0,1-.033.156.179.179,0,0,1-.149.049h-2.7a2.053,2.053,0,0,1-.794-.132,1.353,1.353,0,0,1-.5-.354,1.291,1.291,0,0,1-.265-.519,2.613,2.613,0,0,1-.074-.634V402.87a2.3,2.3,0,0,1,.091-.634,1.313,1.313,0,0,1,.289-.527,1.476,1.476,0,0,1,.513-.362,1.865,1.865,0,0,1,.753-.132h2.646a.16.16,0,0,1,.141.049.259.259,0,0,1,.033.156v.4a.217.217,0,0,1-.033.148c-.025.033-.066.041-.141.041H363.7a.8.8,0,0,0-.587.181.763.763,0,0,0-.182.552V404h3.085a.16.16,0,0,1,.141.049.259.259,0,0,1,.033.156v.371a.247.247,0,0,1-.033.148.16.16,0,0,1-.141.049h-3.085v1.68a.658.658,0,0,0,.769.725h2.688a.179.179,0,0,1,.149.049.259.259,0,0,1,.033.156v.379Zm-9.453-4.627a1.255,1.255,0,0,0-.058-.387.94.94,0,0,0-.207-.362,1.043,1.043,0,0,0-.389-.263,1.64,1.64,0,0,0-.612-.1h-1.687V404.3h1.621a1.9,1.9,0,0,0,.6-.091,1.2,1.2,0,0,0,.413-.247,1.1,1.1,0,0,0,.24-.371A1.492,1.492,0,0,0,357.11,403.134Zm-3.87-1.449a.537.537,0,0,1,.107-.371.5.5,0,0,1,.389-.123h2.216a2.4,2.4,0,0,1,.835.14,1.84,1.84,0,0,1,.645.4,1.669,1.669,0,0,1,.414.6,1.917,1.917,0,0,1,.149.766,1.845,1.845,0,0,1-.289,1.021,1.614,1.614,0,0,1-.8.634v.041a1.048,1.048,0,0,1,.571.37,1.924,1.924,0,0,1,.273.6l.562,2.034a.156.156,0,0,1,.008.107c-.008.041-.05.066-.124.066h-.637a.417.417,0,0,1-.1-.016.157.157,0,0,1-.074-.107L356.871,406a1.322,1.322,0,0,0-.207-.461.9.9,0,0,0-.3-.288,1.182,1.182,0,0,0-.38-.148,2.6,2.6,0,0,0-.455-.041h-1.389V407.8c0,.074-.017.115-.041.132a.28.28,0,0,1-.149.033h-.546a.222.222,0,0,1-.141-.033c-.033-.025-.041-.066-.041-.132v-6.118Zm-5.988,1.918-.455-1.416h-.05l-.438,1.367-.662,2.067H347.9Zm1.621,4.364a.6.6,0,0,1-.141-.016.219.219,0,0,1-.091-.124l-.488-1.416h-2.737l-.488,1.416a.2.2,0,0,1-.207.148h-.662q-.1,0-.124-.049a.229.229,0,0,1-.008-.132l2.192-6.208a.6.6,0,0,1,.174-.3.609.609,0,0,1,.323-.082h.289a.543.543,0,0,1,.356.091.93.93,0,0,1,.174.3l2.183,6.208a.163.163,0,0,1,.008.124c-.017.041-.058.058-.124.058h-.629ZM337.3,402.2l-.323,1.49-.885,3.853a.918.918,0,0,1-.141.313.351.351,0,0,1-.289.115h-.414a.7.7,0,0,1-.323-.066.4.4,0,0,1-.174-.288l-1.331-6.282q-.037-.124.074-.124h.686c.1,0,.149.041.165.115l.769,4.035.281,1.564h.058l.339-1.564.835-3.73a.705.705,0,0,1,.141-.3.458.458,0,0,1,.372-.124h.38a.414.414,0,0,1,.323.115.738.738,0,0,1,.149.313l.81,3.689.339,1.606h.05l.314-1.614.769-3.985a.15.15,0,0,1,.165-.115h.67c.074,0,.108.041.074.123l-1.34,6.282a.4.4,0,0,1-.174.288.722.722,0,0,1-.323.066h-.414a.387.387,0,0,1-.289-.107.849.849,0,0,1-.141-.313l-.877-3.862-.314-1.474H337.3Zm-9.891-.214h-1.894c-.058,0-.1-.008-.108-.033a.231.231,0,0,1-.025-.124v-.469a.217.217,0,0,1,.025-.115.12.12,0,0,1,.108-.041h4.747c.058,0,.1.017.108.041a.218.218,0,0,1,.025.115v.469a.231.231,0,0,1-.025.124c-.017.025-.05.033-.108.033h-1.944V407.8c0,.074-.017.115-.041.132a.257.257,0,0,1-.132.033h-.554a.222.222,0,0,1-.141-.033c-.033-.016-.041-.066-.041-.132Zm-8.816,5.8a.211.211,0,0,1-.041.148.249.249,0,0,1-.149.033h-.488a.262.262,0,0,1-.157-.033.177.177,0,0,1-.05-.148v-4.924a2.3,2.3,0,0,1,.083-.634,1.393,1.393,0,0,1,.273-.527,1.369,1.369,0,0,1,.5-.362,1.964,1.964,0,0,1,.777-.132h2.663a.179.179,0,0,1,.149.049.259.259,0,0,1,.033.156v.4a.244.244,0,0,1-.033.157c-.025.033-.074.041-.149.041h-2.655a.833.833,0,0,0-.587.173.75.75,0,0,0-.182.552v1.35h3.068a.19.19,0,0,1,.141.041.247.247,0,0,1,.033.148v.379a.247.247,0,0,1-.033.148.16.16,0,0,1-.141.049h-3.068v2.94Zm-5.789-3.187a5.869,5.869,0,0,0-.083-1.021,2.814,2.814,0,0,0-.3-.865,1.73,1.73,0,0,0-.6-.6,1.89,1.89,0,0,0-.968-.222,1.824,1.824,0,0,0-.9.214,1.907,1.907,0,0,0-.629.576,2.728,2.728,0,0,0-.372.848,4.064,4.064,0,0,0-.124,1.021,5.614,5.614,0,0,0,.1,1.1,2.569,2.569,0,0,0,.323.856,1.663,1.663,0,0,0,.6.568,2.03,2.03,0,0,0,.951.206,1.856,1.856,0,0,0,.943-.222,1.646,1.646,0,0,0,.612-.6,2.536,2.536,0,0,0,.331-.856A3.918,3.918,0,0,0,312.807,404.6Zm.918-.041a4.076,4.076,0,0,1-.736,2.61,2.642,2.642,0,0,1-2.175.906,2.576,2.576,0,0,1-2.15-.9,4.091,4.091,0,0,1-.711-2.577,4.837,4.837,0,0,1,.215-1.49,3.247,3.247,0,0,1,.6-1.1,2.6,2.6,0,0,1,.91-.675,2.811,2.811,0,0,1,1.15-.231,3.127,3.127,0,0,1,1.249.239,2.412,2.412,0,0,1,.91.683,3.058,3.058,0,0,1,.546,1.087A5.071,5.071,0,0,1,313.725,404.558Zm-9.312,1.606a1.8,1.8,0,0,1-.182.84,1.771,1.771,0,0,1-.5.6,2.05,2.05,0,0,1-.753.354,3.792,3.792,0,0,1-.943.115q-.285,0-.6-.025a5.719,5.719,0,0,1-.629-.082,6,6,0,0,1-.637-.156,4.85,4.85,0,0,1-.6-.239c-.074-.041-.083-.107-.041-.189l.232-.51a.1.1,0,0,1,.157-.058,5.94,5.94,0,0,0,1.042.346,4.4,4.4,0,0,0,.984.124,2.08,2.08,0,0,0,1.15-.272.907.907,0,0,0,.413-.8.918.918,0,0,0-.1-.436,1.148,1.148,0,0,0-.3-.346,2.32,2.32,0,0,0-.5-.3c-.2-.091-.43-.189-.695-.288a9.766,9.766,0,0,1-.935-.387,3.6,3.6,0,0,1-.67-.42,1.583,1.583,0,0,1-.405-.51,1.476,1.476,0,0,1-.132-.65,1.631,1.631,0,0,1,.554-1.284,2.345,2.345,0,0,1,1.613-.494,6.567,6.567,0,0,1,1.025.091,3.914,3.914,0,0,1,1,.3.118.118,0,0,1,.066.165l-.215.543c-.017.041-.041.074-.05.074s-.041,0-.074-.008a4.588,4.588,0,0,0-.943-.272,4.408,4.408,0,0,0-.835-.082,1.4,1.4,0,0,0-.9.255.8.8,0,0,0-.323.651.728.728,0,0,0,.108.412,1.153,1.153,0,0,0,.314.321,2.827,2.827,0,0,0,.529.28c.215.091.463.189.753.313.273.107.529.214.777.321a2.77,2.77,0,0,1,.645.4,1.689,1.689,0,0,1,.447.552A1.8,1.8,0,0,1,304.413,406.164Z" transform="translate(-274.731 -368.074)"/>
  <path id="Path_201" data-name="Path 201" class="cls-2" d="M714.545,14.261a7.47,7.47,0,0,0-2.382-1.6,7.727,7.727,0,0,0-2.994-.576h-5.458a1.525,1.525,0,0,0-1.3.56,2.018,2.018,0,0,0,0,2.552,1.493,1.493,0,0,0,1.3.56h5.45a3.525,3.525,0,0,1,2.688,1.1,4.641,4.641,0,0,1,0,6.06,3.038,3.038,0,0,1-2.845,1h-5.45a7.112,7.112,0,0,1-2.1-.14,3.554,3.554,0,0,1-1.265-.856,3.875,3.875,0,0,1-1.075-2.808V1.984L699.1,1.77A1.646,1.646,0,0,0,698.55.486a1.864,1.864,0,0,0-1.257-.478h-.041c-.05,0-.091-.008-.141-.008a1.874,1.874,0,0,0-1.257.486,1.743,1.743,0,0,0-.554,1.433l.008,13.652v4.594a7.484,7.484,0,0,0,2.225,5.336,7.785,7.785,0,0,0,2.4,1.564,7.564,7.564,0,0,0,2.845.576H708.8a7.393,7.393,0,0,0,3.358-.576,7.463,7.463,0,0,0,3.986-3.977,9.044,9.044,0,0,0,0-6.422,7.122,7.122,0,0,0-1.6-2.4" transform="translate(-637.798 0)"/>
  <path id="Path_202" data-name="Path 202" class="cls-2" d="M998.209,149.541a7.237,7.237,0,0,0-2.233-1.581,6.643,6.643,0,0,0-2.7-.56h-7.369a6.653,6.653,0,0,0-2.7.56,7.234,7.234,0,0,0-2.233,1.581,7.577,7.577,0,0,0-1.514,2.413,9.706,9.706,0,0,0-.008,6.488,7.03,7.03,0,0,0,6.451,4.479h7.311a6.492,6.492,0,0,0,2.7-.56,7.237,7.237,0,0,0,2.233-1.581,7.361,7.361,0,0,0,1.092-1.466h-6.285c-2.349,0-4.706-.016-7.054-.016a3.448,3.448,0,0,1-2.514-1.062,4.566,4.566,0,0,1-.008-6.019,3.281,3.281,0,0,1,2.522-1.186h7.311c1.447,0,2.729,1.515,3.11,2.816h-9.908a1.548,1.548,0,0,0-1.307.527,2.024,2.024,0,0,0-.422,1.252,2,2,0,0,0,.422,1.243,1.537,1.537,0,0,0,1.307.527h13.6a8.821,8.821,0,0,0-1.8-7.855" transform="translate(-897.942 -135.263)"/>
  <path id="Path_203" data-name="Path 203" class="cls-2" d="M1276.892,146.935a1.734,1.734,0,0,0-1.414-.535h-6.269a7.089,7.089,0,0,0-2.878.593,7.929,7.929,0,0,0-2.39,1.63A7.747,7.747,0,0,0,1262.3,151a7.1,7.1,0,0,0-.6,2.865v6.266a1.722,1.722,0,0,0,.554,1.408,1.863,1.863,0,0,0,2.473,0,1.733,1.733,0,0,0,.546-1.408v-6.266a3.708,3.708,0,0,1,1.191-2.725,3.771,3.771,0,0,1,2.746-1.186h6.269a1.745,1.745,0,0,0,1.414-.535,1.983,1.983,0,0,0,.463-.98v-.511a1.97,1.97,0,0,0-.463-1" transform="translate(-1157.355 -134.346)"/>
  <path id="Path_204" data-name="Path 204" class="cls-2" d="M201.769,143.6a1.938,1.938,0,0,0-1.3.5,1.8,1.8,0,0,0-.571,1.466v12.046a1.6,1.6,0,0,0,.554,1.359,2.167,2.167,0,0,0,2.63,0,1.6,1.6,0,0,0,.554-1.359V145.568a1.771,1.771,0,0,0-.571-1.466,1.969,1.969,0,0,0-1.3-.5" transform="translate(-183.368 -131.776)"/>
  <path id="Path_205" data-name="Path 205" class="cls-2" d="M278.563,146.2h-1.547a7.515,7.515,0,0,0-5.433,2.248,7.593,7.593,0,0,0-1.6,2.429,7.483,7.483,0,0,0-.579,2.89v6.274a1.535,1.535,0,0,0,.538,1.309,2.049,2.049,0,0,0,1.274.445,2.017,2.017,0,0,0,1.274-.445,1.513,1.513,0,0,0,.538-1.309v-6.274a3.44,3.44,0,0,1,.811-2.24,3.307,3.307,0,0,1,2.87-1.441h3.465a3.949,3.949,0,0,1,2.713,1.046,3.408,3.408,0,0,1,1.2,2.627v6.085a1.774,1.774,0,0,0,.571,1.466,1.929,1.929,0,0,0,2.6,0,1.77,1.77,0,0,0,.562-1.466v-6.085a3.485,3.485,0,0,1,.786-2.231,4.241,4.241,0,0,1,1.613-1.276,2.213,2.213,0,0,1,1.108-.181h3.672a4.078,4.078,0,0,1,2.762,1.062,3.408,3.408,0,0,1,1.224,2.635v6.3a1.514,1.514,0,0,0,.554,1.284,2.009,2.009,0,0,0,1.265.445,1.985,1.985,0,0,0,1.274-.445,1.5,1.5,0,0,0,.538-1.284v-6.3a7.174,7.174,0,0,0-.6-2.882,7.673,7.673,0,0,0-1.654-2.437A7.758,7.758,0,0,0,297.9,146.8a7.171,7.171,0,0,0-2.911-.6h-3.234a6.874,6.874,0,0,0-3.093.7,9.358,9.358,0,0,0-2.489,1.762l-.223.222-.232-.222a9.413,9.413,0,0,0-2.489-1.762,6.709,6.709,0,0,0-3.085-.7h-1.58Z" transform="translate(-247.12 -134.162)"/>
  <path id="Path_206" data-name="Path 206" class="cls-2" d="M4.788,22.857a3.683,3.683,0,0,1-1.166-2.7V3.5h0V1.91A1.754,1.754,0,0,0,3.068.478,1.921,1.921,0,0,0,1.811,0,1.874,1.874,0,0,0,.554.486,1.725,1.725,0,0,0,0,1.91L.008,15.562v4.594a7.484,7.484,0,0,0,2.225,5.336,7.784,7.784,0,0,0,2.4,1.564,7.39,7.39,0,0,0,2.878.576H12.7a1.612,1.612,0,0,0,1.365-.552,2.142,2.142,0,0,0,0-2.618,1.612,1.612,0,0,0-1.365-.552H8.245c-1.522.008-2.266.148-3.457-1.054" transform="translate(0 0)"/>
  <path id="Path_207" data-name="Path 207" class="cls-3" d="M202.052,82.2a1.844,1.844,0,1,1-1.853,1.844,1.845,1.845,0,0,1,1.853-1.844" transform="translate(-183.642 -75.432)"/>
</svg>
