<svg xmlns="http://www.w3.org/2000/svg" viewBox="0 0 125 38">
  <defs>
    <style>
      .cls-1 {
        fill: rgba(255,255,255,0);
      }

      .cls-2 {
        fill: #fff;
      }
    </style>
  </defs>
  <g id="logo" transform="translate(-72 -8)">
    <rect id="Rectangle_31" data-name="Rectangle 31" class="cls-1" width="125" height="38" transform="translate(72 8)"/>
    <g id="Group_3" data-name="Group 3" transform="translate(76.112 14.333)">
      <g id="Group_2" data-name="Group 2" transform="translate(0 0)">
        <path id="Path_11" data-name="Path 11" class="cls-2" d="M213.431,12.964a6.686,6.686,0,0,0-2.276-1.448,7.621,7.621,0,0,0-2.838-.54h-6a1.477,1.477,0,0,0-1.241.511,1.751,1.751,0,0,0,0,2.329,1.477,1.477,0,0,0,1.241.511h6a3.71,3.71,0,0,1,2.69,1.022,3.352,3.352,0,0,1,1.035,2.584v.4a3.5,3.5,0,0,1-1.035,2.584,3.662,3.662,0,0,1-2.69,1.022h-6a3.328,3.328,0,0,1-2.483-1.022,3.46,3.46,0,0,1-1.035-2.584V1.547a1.566,1.566,0,0,0-.5-1.193A1.92,1.92,0,0,0,197.114-.1a1.714,1.714,0,0,0-1.182.454,1.538,1.538,0,0,0-.532,1.193V18.3a6.822,6.822,0,0,0,.532,2.726,6.669,6.669,0,0,0,1.507,2.187,6.436,6.436,0,0,0,2.217,1.448,7.085,7.085,0,0,0,2.69.54h6a7.1,7.1,0,0,0,2.838-.54,7.486,7.486,0,0,0,2.276-1.448,6.386,6.386,0,0,0,1.507-2.187,6.833,6.833,0,0,0,.562-2.726v-.4a6.582,6.582,0,0,0-.562-2.755A7.237,7.237,0,0,0,213.431,12.964Z" transform="translate(-137.791 0.1)"/>
        <path id="Path_12" data-name="Path 12" class="cls-2" d="M291.074,43.175a6.793,6.793,0,0,0-1.448-2.215,6.236,6.236,0,0,0-2.1-1.448A6.479,6.479,0,0,0,284.956,39H277.98a6.479,6.479,0,0,0-2.572.511,6.666,6.666,0,0,0-2.128,1.448,6.973,6.973,0,0,0-1.448,2.215,7.164,7.164,0,0,0-.532,2.755v.54a6.606,6.606,0,0,0,.532,2.641,6.729,6.729,0,0,0,1.448,2.13,6.075,6.075,0,0,0,2.128,1.448,6.479,6.479,0,0,0,2.572.511h11.439a1.28,1.28,0,0,0,1.094-.483,1.871,1.871,0,0,0,.384-1.193,1.926,1.926,0,0,0-.384-1.193,1.279,1.279,0,0,0-1.094-.483H278.01a3.594,3.594,0,0,1-2.453-.966,3.276,3.276,0,0,1-1.035-2.442V45.9a3.561,3.561,0,0,1,1.035-2.528,3.3,3.3,0,0,1,2.453-1.079h6.976a3.3,3.3,0,0,1,2.453,1.079,3.851,3.851,0,0,1,.739,1.108l.177.4H278.276a1.194,1.194,0,1,0,0,2.386H290.01a1.294,1.294,0,0,0,1-.4,3.169,3.169,0,0,0,.473-2.215A9.2,9.2,0,0,0,291.074,43.175Z" transform="translate(-191.256 -27.895)"/>
        <path id="Path_13" data-name="Path 13" class="cls-2" d="M60.015,38.554a1.859,1.859,0,0,0-1.241-.454,1.914,1.914,0,0,0-1.241.454A1.62,1.62,0,0,0,57,39.889V50.909a1.481,1.481,0,0,0,.532,1.25,2.022,2.022,0,0,0,2.483,0,1.412,1.412,0,0,0,.532-1.25V39.889A1.62,1.62,0,0,0,60.015,38.554Z" transform="translate(-40.3 -27.251)"/>
        <path id="Path_14" data-name="Path 14" class="cls-2" d="M107.538,40.845a7.786,7.786,0,0,0-2.306-1.505,7.07,7.07,0,0,0-2.749-.54H99a6.677,6.677,0,0,0-2.926.653A9.051,9.051,0,0,0,93.7,41.072l-.207.2-.207-.2a9.249,9.249,0,0,0-2.365-1.619A6.677,6.677,0,0,0,88,38.8H84.512a7.9,7.9,0,0,0-2.867.54,6.959,6.959,0,0,0-2.276,1.505A6.976,6.976,0,0,0,77.3,45.7v4.374h0V51.41a1.4,1.4,0,0,0,.5,1.193,2.046,2.046,0,0,0,2.424,0,1.354,1.354,0,0,0,.5-1.193V47.434h0V45.7a3.1,3.1,0,0,1,.769-2.045,4.487,4.487,0,0,1,1.921-1.306l.059-.028H88a4.024,4.024,0,0,1,2.6.966A3.076,3.076,0,0,1,91.754,45.7v5.567a1.583,1.583,0,0,0,.532,1.335,1.859,1.859,0,0,0,1.241.454,1.914,1.914,0,0,0,1.241-.454,1.62,1.62,0,0,0,.532-1.335V45.73a3.07,3.07,0,0,1,.739-2.045,4.223,4.223,0,0,1,1.892-1.306l.059-.028h4.522a3.966,3.966,0,0,1,2.6.966,3.035,3.035,0,0,1,1.153,2.414V51.5a1.432,1.432,0,0,0,.5,1.193,2.055,2.055,0,0,0,1.212.4,2.124,2.124,0,0,0,1.212-.4,1.4,1.4,0,0,0,.5-1.193V45.73a6.734,6.734,0,0,0-.562-2.641A7.85,7.85,0,0,0,107.538,40.845Z" transform="translate(-54.599 -27.752)"/>
        <path id="Path_15" data-name="Path 15" class="cls-2" d="M13.594,21.954H7.624A3.705,3.705,0,0,1,5.052,20.9a3.312,3.312,0,0,1-1.094-2.471V3.209h0V1.732A1.561,1.561,0,0,0,3.426.426,1.966,1.966,0,0,0,2.214,0,1.714,1.714,0,0,0,1.032.454,1.561,1.561,0,0,0,.5,1.761v16.7a6.323,6.323,0,0,0,.562,2.7A6.48,6.48,0,0,0,2.6,23.317a8.068,8.068,0,0,0,2.276,1.448,7.389,7.389,0,0,0,2.749.54h5.941a1.683,1.683,0,0,0,1.3-.483,1.751,1.751,0,0,0,0-2.329A1.44,1.44,0,0,0,13.594,21.954Z" transform="translate(-0.5 0.028)"/>
        <path id="Path_16" data-name="Path 16" class="cls-2" d="M361.6,39.283a1.653,1.653,0,0,0-1.33-.483h-5.173a6.824,6.824,0,0,0-2.719.54,7.565,7.565,0,0,0-2.276,1.477A7.237,7.237,0,0,0,348.561,43,6.123,6.123,0,0,0,348,45.616v5.112h0v.6a1.5,1.5,0,0,0,.532,1.278,1.827,1.827,0,0,0,1.182.426A1.886,1.886,0,0,0,350.9,52.6a1.539,1.539,0,0,0,.532-1.278V49.053h0V45.616a3.4,3.4,0,0,1,1.123-2.5,3.681,3.681,0,0,1,2.6-1.079h5.173a1.709,1.709,0,0,0,1.33-.483,1.675,1.675,0,0,0,.443-1.136A2.1,2.1,0,0,0,361.6,39.283Z" transform="translate(-245.285 -27.752)"/>
      </g>
    </g>
  </g>
</svg>
