<svg id="MasterCard" xmlns="http://www.w3.org/2000/svg" viewBox="0 0 65 41">
  <defs>
    <style>
      .cls-1 {
        fill: rgba(255,255,255,0);
      }

      .cls-2 {
        fill: #fff;
      }

      .cls-2, .cls-3 {
        fill-rule: evenodd;
      }

      .cls-3 {
        fill: #016fd0;
      }
    </style>
  </defs>
  <rect id="Rectangle_25" data-name="Rectangle 25" class="cls-1" width="65" height="41" transform="translate(0 0)"/>
  <g id="Group_561" data-name="Group 561" transform="translate(9 -22.308)">
    <g id="Group_556" data-name="Group 556" transform="translate(0 35.304)">
      <path id="Path_370" data-name="Path 370" class="cls-2" d="M34.9,169.331V161.3h7.837l.839,1.192.865-1.192H72.932v7.464a3.045,3.045,0,0,1-1.6.539H55.58l-.944-1.277V169.3H51.518v-2.128a2.357,2.357,0,0,1-1.337.312H49.133v1.845H44.415l-.839-1.22-.865,1.22Z" transform="translate(-25.752 -150.828)"/>
      <path id="Path_371" data-name="Path 371" class="cls-2" d="M0,128.856,1.756,124.4H4.823l1,2.5v-2.5h3.8l.6,1.816L10.8,124.4H27.862v.908a3.508,3.508,0,0,1,2.359-.908l5.531.028,1,2.469v-2.5h3.172l.865,1.419V124.4h3.25v8.031H40.81l-.839-1.419v1.419H35.306l-.472-1.277H33.576l-.472,1.277H29.933a3.042,3.042,0,0,1-2.071-.88v.88h-4.77l-.944-1.277v1.277H4.377l-.472-1.277H2.647l-.472,1.277H0v-3.576Z" transform="translate(0 -124.4)"/>
      <path id="Path_372" data-name="Path 372" class="cls-3" d="M2.385,127.8,0,133.816H1.573l.446-1.192H4.587l.446,1.192h1.6L4.194,127.8Zm.891,1.391.786,2.1H2.49l.786-2.1Z" transform="translate(0 -126.835)"/>
      <path id="Path_373" data-name="Path 373" class="cls-3" d="M25.8,133.816V127.8H28l1.284,3.888,1.258-3.888H32.72v6.016H31.331v-4.427l-1.468,4.427H28.657l-1.494-4.427v4.427Z" transform="translate(-19.038 -126.835)"/>
      <path id="Path_374" data-name="Path 374" class="cls-3" d="M55.8,133.816V127.8h4.534v1.334H57.215v1.05h3.04v1.249h-3.04v1.078h3.119v1.305Z" transform="translate(-41.174 -126.835)"/>
      <path id="Path_375" data-name="Path 375" class="cls-3" d="M76.1,127.8v6.016h1.389v-2.128h.577l1.677,2.128h1.7L79.612,131.6a1.762,1.762,0,0,0,1.52-1.845,1.86,1.86,0,0,0-1.94-1.958Zm1.389,1.334h1.573a.625.625,0,1,1,.026,1.249h-1.6v-1.249Z" transform="translate(-56.153 -126.835)"/>
      <path id="Path_376" data-name="Path 376" class="cls-3" d="M98.915,133.816H97.5V127.8h1.415Z" transform="translate(-71.944 -126.835)"/>
      <path id="Path_377" data-name="Path 377" class="cls-3" d="M108.1,133.816h-.315c-1.468,0-2.385-1.249-2.385-2.98,0-1.76.891-3.037,2.752-3.037h1.52v1.419h-1.6c-.76,0-1.284.653-1.284,1.618,0,1.164.6,1.646,1.494,1.646h.367l-.55,1.334Z" transform="translate(-77.774 -126.835)"/>
      <path id="Path_378" data-name="Path 378" class="cls-3" d="M120.485,127.8l-2.385,6.016h1.546l.446-1.192h2.569l.446,1.192h1.6L122.32,127.8Zm.891,1.391.786,2.1H120.59l.786-2.1Z" transform="translate(-87.145 -126.835)"/>
      <path id="Path_379" data-name="Path 379" class="cls-3" d="M143.8,133.816V127.8h1.756l2.254,3.774V127.8H149.2v6.016h-1.7l-2.307-3.888v3.888Z" transform="translate(-106.109 -126.835)"/>
      <path id="Path_380" data-name="Path 380" class="cls-3" d="M38.6,170.816V164.8h4.508v1.362H39.989v1.022h3.04v1.249h-3.04v1.078h3.119v1.305Z" transform="translate(-28.483 -153.335)"/>
      <path id="Path_381" data-name="Path 381" class="cls-3" d="M123.1,170.816V164.8h4.534v1.362h-3.119v1.022h3.04v1.249h-3.04v1.078h3.119v1.305Z" transform="translate(-90.834 -153.335)"/>
      <path id="Path_382" data-name="Path 382" class="cls-3" d="M56.352,170.816l2.2-2.951L56.3,164.8h1.756l1.337,1.9,1.337-1.9h1.677l-2.228,3.008,2.228,3.008H60.651l-1.311-1.845-1.258,1.845Z" transform="translate(-41.543 -153.335)"/>
      <path id="Path_383" data-name="Path 383" class="cls-3" d="M80.2,164.8v6.016h1.415v-1.9h1.468a1.99,1.99,0,0,0,2.176-2.1,1.9,1.9,0,0,0-1.992-2.015Zm1.415,1.362h1.546a.643.643,0,0,1,.681.681.658.658,0,0,1-.681.681h-1.52v-1.362Z" transform="translate(-59.179 -153.335)"/>
      <path id="Path_384" data-name="Path 384" class="cls-3" d="M101.8,164.8v6.016h1.389v-2.128h.577l1.651,2.128h1.7l-1.835-2.214a1.762,1.762,0,0,0,1.52-1.845,1.86,1.86,0,0,0-1.94-1.958Zm1.389,1.362h1.573a.625.625,0,1,1,.026,1.249h-1.6v-1.249Z" transform="translate(-75.117 -153.335)"/>
      <path id="Path_385" data-name="Path 385" class="cls-3" d="M142.383,170.816v-1.305h2.778c.419,0,.577-.227.577-.511a.518.518,0,0,0-.577-.511H143.9a1.608,1.608,0,0,1-1.7-1.788c0-.965.55-1.9,2.176-1.9h2.7l-.577,1.362h-2.333c-.446,0-.577.255-.577.482a.48.48,0,0,0,.5.511H145.4a1.574,1.574,0,0,1,1.73,1.731,1.723,1.723,0,0,1-1.809,1.9l-2.936.028Z" transform="translate(-104.928 -153.335)"/>
      <path id="Path_386" data-name="Path 386" class="cls-3" d="M161.783,170.816v-1.305h2.647c.419,0,.577-.227.577-.511a.518.518,0,0,0-.577-.511H163.3a1.608,1.608,0,0,1-1.7-1.788c0-.965.55-1.9,2.176-1.9h2.647l-.577,1.362h-2.28c-.446,0-.577.255-.577.482a.48.48,0,0,0,.5.511h1.206a1.574,1.574,0,0,1,1.73,1.731,1.723,1.723,0,0,1-1.809,1.9l-2.831.028Z" transform="translate(-119.243 -153.335)"/>
    </g>
  </g>
</svg>
