<svg id="MasterCard" xmlns="http://www.w3.org/2000/svg" viewBox="0 0 65 41">
  <defs>
    <style>
      .cls-1 {
        fill: rgba(255,255,255,0);
      }

      .cls-2, .cls-5 {
        fill: #312783;
      }

      .cls-2, .cls-3, .cls-4 {
        fill-rule: evenodd;
      }

      .cls-3 {
        fill: #ffed00;
      }

      .cls-4 {
        fill: #e30613;
      }
    </style>
  </defs>
  <rect id="Rectangle_25" data-name="Rectangle 25" class="cls-1" width="65" height="41" transform="translate(0 0)"/>
  <g id="Group_565" data-name="Group 565" transform="translate(13.792 8.567)">
    <path id="Path_432" data-name="Path 432" class="cls-2" d="M0,0H36.835V23.014H0Z"/>
    <path id="Path_433" data-name="Path 433" class="cls-3" d="M140.605,47.2a6.908,6.908,0,1,1-7.305,6.9,7.108,7.108,0,0,1,7.305-6.9Z" transform="translate(-122.184 -43.484)"/>
    <path id="Path_434" data-name="Path 434" class="cls-4" d="M17.4,98.9a59.789,59.789,0,0,1,19.431,3.071v12.149H0v-12.8A61.213,61.213,0,0,1,17.4,98.9Z" transform="translate(0 -91.113)"/>
    <path id="Path_435" data-name="Path 435" class="cls-3" d="M17.4,143.2a59.789,59.789,0,0,1,19.431,3.071v8.669H0v-9.322A60.935,60.935,0,0,1,17.4,143.2Z" transform="translate(0 -131.925)"/>
    <g id="Group_565-2" data-name="Group 565" transform="translate(7.739 15.054)">
      <path id="Path_436" data-name="Path 436" class="cls-5" d="M92.8,194.916l2.835-3.716h1.051l3.019,3.716H98.6l-.859-1.126H94.651l-.809,1.126Zm2.127-1.527h2.5l-.767-1.031a8.3,8.3,0,0,1-.525-.772,3.051,3.051,0,0,1-.4.709Z" transform="translate(-92.8 -191.2)"/>
      <path id="Path_437" data-name="Path 437" class="cls-5" d="M186.736,206.893V206.5a2.811,2.811,0,0,1-1.7.457,3.938,3.938,0,0,1-.884-.094,1.758,1.758,0,0,1-.609-.228.8.8,0,0,1-.284-.339,1.245,1.245,0,0,1-.058-.425V204.2h.909v1.5a1.234,1.234,0,0,0,.058.48.622.622,0,0,0,.359.283,1.937,1.937,0,0,0,.684.1,2.688,2.688,0,0,0,.767-.1,1.029,1.029,0,0,0,.509-.283.808.808,0,0,0,.15-.528v-1.441h.909V206.9h-.809Z" transform="translate(-175.661 -203.176)"/>
      <path id="Path_438" data-name="Path 438" class="cls-5" d="M252.2,206.156v-2.693h.817v.409a1.813,1.813,0,0,1,.575-.378,1.7,1.7,0,0,1,.584-.094,3.008,3.008,0,0,1,.934.15l-.309.425a2.45,2.45,0,0,0-.667-.1,1.6,1.6,0,0,0-.534.087.64.64,0,0,0-.334.252,1,1,0,0,0-.15.535v1.409Z" transform="translate(-238.907 -202.439)"/>
      <path id="Path_439" data-name="Path 439" class="cls-5" d="M293.694,205.825a5.1,5.1,0,0,1-.967.307,5.022,5.022,0,0,1-1,.087,3.231,3.231,0,0,1-1.351-.22c-.309-.15-.475-.331-.475-.551a.488.488,0,0,1,.175-.362,1.235,1.235,0,0,1,.467-.26,3.543,3.543,0,0,1,.65-.15c.175-.024.45-.047.809-.071a16.167,16.167,0,0,0,1.618-.157c0-.063.008-.1.008-.118a.4.4,0,0,0-.259-.394,2.667,2.667,0,0,0-1.034-.157,3.037,3.037,0,0,0-.942.11.786.786,0,0,0-.45.4l-.884-.063a1.05,1.05,0,0,1,.4-.465,2.244,2.244,0,0,1,.8-.268,6.9,6.9,0,0,1,1.218-.094,6.048,6.048,0,0,1,1.109.079,2.052,2.052,0,0,1,.625.2.725.725,0,0,1,.284.307,1.259,1.259,0,0,1,.042.417v.606a3.088,3.088,0,0,0,.058.8.88.88,0,0,0,.225.323h-.951A.548.548,0,0,1,293.694,205.825Zm-.075-1.016a11.67,11.67,0,0,1-1.484.173,4.938,4.938,0,0,0-.792.094.869.869,0,0,0-.359.15.269.269,0,0,0-.125.22q0,.177.275.307a1.967,1.967,0,0,0,.8.118,3.383,3.383,0,0,0,.934-.118,1.3,1.3,0,0,0,.6-.315.624.624,0,0,0,.15-.457Z" transform="translate(-273.463 -202.439)"/>
    </g>
  </g>
</svg>
