<svg id="Dinners" xmlns="http://www.w3.org/2000/svg" viewBox="0 0 65 41">
  <defs>
    <style>
      .cls-1 {
        fill: rgba(255,255,255,0);
      }

      .cls-2 {
        fill: #0064a7;
      }

      .cls-3 {
        fill: #fff;
      }
    </style>
  </defs>
  <rect id="Rectangle_25" data-name="Rectangle 25" class="cls-1" width="65" height="41" transform="translate(0 0)"/>
  <g id="Group_38" data-name="Group 38" transform="translate(18.519 10)">
    <path id="Path_113" data-name="Path 113" class="cls-2" d="M15.938,21.576c5.9.026,11.275-4.795,11.275-10.7C27.24,4.452,21.839,0,15.938,0H10.88A10.638,10.638,0,0,0,0,10.88a10.811,10.811,0,0,0,10.88,10.7Z"/>
    <path id="Path_114" data-name="Path 114" class="cls-3" d="M16.018,19.1V7.431a6.239,6.239,0,0,1,0,11.67M7.509,13.279a6.287,6.287,0,0,1,4-5.848V19.1a6.263,6.263,0,0,1-4-5.822M13.779,3.4a9.879,9.879,0,1,0,9.879,9.879A9.883,9.883,0,0,0,13.779,3.4" transform="translate(-2.873 -2.504)"/>
  </g>
</svg>
