<svg id="MasterCard" xmlns="http://www.w3.org/2000/svg" xmlns:xlink="http://www.w3.org/1999/xlink" viewBox="0 0 65 41">
  <defs>
    <style>
      .cls-1 {
        fill: rgba(255,255,255,0);
      }

      .cls-2 {
        fill: url(#radial-gradient);
      }
    </style>
    <radialGradient id="radial-gradient" cx="148.208" cy="5.009" r="4.206" gradientTransform="translate(-0.283 -0.754) scale(1.063 1.157)" gradientUnits="userSpaceOnUse">
      <stop offset="0.006" stop-color="#fff3e8"/>
      <stop offset="0.097" stop-color="#feefe0"/>
      <stop offset="0.246" stop-color="#fee3ca"/>
      <stop offset="0.434" stop-color="#fcd0a5"/>
      <stop offset="0.653" stop-color="#f8b471"/>
      <stop offset="0.897" stop-color="#f28e2c"/>
      <stop offset="1" stop-color="#ef7d00"/>
    </radialGradient>
  </defs>
  <rect id="Rectangle_25" data-name="Rectangle 25" class="cls-1" width="65" height="41" transform="translate(0 0)"/>
  <g id="Group_560" data-name="Group 560" transform="translate(6.217 14.534)">
    <path id="Path_388" data-name="Path 388" class="cls-2" d="M148.219.2A4.636,4.636,0,0,0,143.7,4.94a4.587,4.587,0,0,0,4.519,4.866,4.633,4.633,0,0,0,4.519-4.812A4.629,4.629,0,0,0,148.219.2Z" transform="translate(-120.085 -0.164)"/>
    <path id="Path_389" data-name="Path 389" d="M2.432,1.2H0v9.23H2.416A4.186,4.186,0,0,0,5.44,9.357,4.774,4.774,0,0,0,6.984,5.815,4.386,4.386,0,0,0,2.432,1.2ZM4.371,8.141A2.958,2.958,0,0,1,2.1,8.874H1.66V2.756H2.1a2.918,2.918,0,0,1,2.268.751,3.226,3.226,0,0,1,.92,2.29A3.4,3.4,0,0,1,4.371,8.141Z" transform="translate(0 -0.985)"/>
    <rect id="Rectangle_493" data-name="Rectangle 493" width="1.66" height="9.23" transform="translate(7.757 0.215)"/>
    <path id="Path_390" data-name="Path 390" d="M64.435,4c-.986-.394-1.282-.662-1.282-1.163a1.108,1.108,0,0,1,1.233-1.02,1.638,1.638,0,0,1,1.331.751l.871-1.252A3.521,3.521,0,0,0,64.09.3a2.6,2.6,0,0,0-2.646,2.647c0,1.27.542,1.932,2.087,2.54a6.7,6.7,0,0,1,1.15.519,1.131,1.131,0,0,1,.493.948A1.256,1.256,0,0,1,63.892,8.26a1.947,1.947,0,0,1-1.808-1.234L61,8.153a3.234,3.234,0,0,0,2.942,1.753,2.855,2.855,0,0,0,2.925-3.041C66.867,5.416,66.308,4.754,64.435,4Z" transform="translate(-50.976 -0.246)"/>
    <path id="Path_391" data-name="Path 391" d="M99.9,4.83a4.6,4.6,0,0,0,4.486,4.83,4.35,4.35,0,0,0,2.071-.537V6.994a2.585,2.585,0,0,1-2,1.02,2.924,2.924,0,0,1-2.859-3.184,2.959,2.959,0,0,1,2.777-3.166A2.672,2.672,0,0,1,106.441,2.7V.572A4.051,4.051,0,0,0,104.4,0,4.668,4.668,0,0,0,99.9,4.83Z" transform="translate(-83.483 0)"/>
    <path id="Path_392" data-name="Path 392" d="M200.676,7.407,198.408,1.2H196.6l3.615,9.463h.887L204.767,1.2h-1.791Z" transform="translate(-164.292 -0.985)"/>
    <path id="Path_393" data-name="Path 393" d="M250.9,10.43h4.7V8.874h-3.057V6.37h2.925V4.813h-2.925V2.756H255.6V1.2h-4.7Z" transform="translate(-209.668 -0.985)"/>
    <path id="Path_394" data-name="Path 394" d="M291.556,3.919c0-1.735-1.1-2.719-3.007-2.719H286.1v9.23h1.66v-3.7h.214l2.284,3.721H292.3l-2.679-3.9A2.423,2.423,0,0,0,291.556,3.919Zm-3.32,1.52h-.477V2.649h.509c1.035,0,1.594.465,1.594,1.377S289.3,5.439,288.236,5.439Z" transform="translate(-239.084 -0.985)"/>
    <path id="Path_395" data-name="Path 395" d="M323.726,3.85c0-.161-.1-.25-.279-.25H323.2v.8h.181V4.1l.214.322h.214l-.247-.34A.225.225,0,0,0,323.726,3.85Zm-.312.107h-.033V3.743h.033c.082,0,.131.036.131.107C323.562,3.922,323.512,3.958,323.414,3.958Z" transform="translate(-270.087 -2.956)"/>
    <path id="Path_396" data-name="Path 396" d="M321.557,1.9a.69.69,0,0,0-.657.716.69.69,0,0,0,.657.716.677.677,0,0,0,.641-.716A.667.667,0,0,0,321.557,1.9Zm0,1.288a.56.56,0,0,1-.526-.59.522.522,0,1,1,1.035,0A.537.537,0,0,1,321.557,3.188Z" transform="translate(-268.165 -1.56)"/>
    <path id="Path_397" data-name="Path 397" d="M90.3,66.4l2.219,2.522v-2.4h.312v3.238l-2.219-2.522V69.62H90.3Z" transform="translate(-75.461 -54.522)"/>
    <path id="Path_398" data-name="Path 398" d="M90.1,65.989v3.256h.378V66.92c.1.107,2.219,2.522,2.219,2.522V66.079h-.378v2.343C92.22,68.315,90.1,65.9,90.1,65.9Zm.066.072c.1.125,2.219,2.54,2.219,2.54V66.15h.263v3.113c-.115-.107-2.235-2.522-2.235-2.522v2.433h-.263C90.166,69.12,90.166,66.222,90.166,66.061Z" transform="translate(-75.293 -54.112)"/>
    <path id="Path_399" data-name="Path 399" d="M115,67.1h1.479v.322h-1.15v.912h1.117v.322h-1.117v1.216h1.15v.322H115Z" transform="translate(-96.101 -55.097)"/>
    <path id="Path_400" data-name="Path 400" d="M116.4,66.818h-1.5v3.148h1.528v-.394h-1.15V68.428H116.4v-.376h-1.117v-.859h1.15V66.8H116.4Zm-.033.072v.25h-1.15v.984h1.117v.25h-1.117v1.27h1.15v.25h-1.413V66.872C115,66.889,116.313,66.889,116.363,66.889Z" transform="translate(-96.018 -54.851)"/>
    <path id="Path_401" data-name="Path 401" d="M132.5,70.195h-.312V67.422h-.69V67.1h1.693v.322h-.69Z" transform="translate(-109.89 -55.097)"/>
    <path id="Path_402" data-name="Path 402" d="M133.026,66.9H131.3v.394h.69v2.773h.378V67.294h.69V66.9Zm-.033.072v.25h-.69v2.773h-.263V67.222h-.69v-.25Z" transform="translate(-109.723 -54.933)"/>
    <path id="Path_403" data-name="Path 403" d="M149.185,68.686l.92-2.486.92,2.486.74-2.308h.345l-1.085,3.256-.92-2.486-.92,2.486L148.1,66.379h.345Z" transform="translate(-123.762 -54.358)"/>
    <path id="Path_404" data-name="Path 404" d="M149.821,65.872s-.838,2.254-.887,2.4c-.049-.143-.723-2.254-.723-2.254H147.8l1.134,3.381s.871-2.361.92-2.486c.049.143.92,2.486.92,2.486l1.134-3.381H151.5s-.674,2.111-.723,2.254c-.049-.143-.92-2.469-.92-2.469Zm-.871,2.486s.838-2.272.887-2.4c.049.143.92,2.486.92,2.486s.756-2.325.772-2.379h.279c-.033.089-1,2.987-1.052,3.13-.049-.143-.92-2.486-.92-2.486s-.855,2.343-.9,2.486c-.049-.143-1.019-3.041-1.052-3.13h.279c.016.036.772,2.379.772,2.379Z" transform="translate(-123.511 -54.03)"/>
    <path id="Path_405" data-name="Path 405" d="M182.358,68.41a1.483,1.483,0,1,1-2.958,0,1.484,1.484,0,1,1,2.958,0Zm-2.646,0a1.172,1.172,0,1,0,1.167-1.288A1.226,1.226,0,0,0,179.712,68.41Z" transform="translate(-149.918 -54.851)"/>
    <path id="Path_406" data-name="Path 406" d="M179.2,68.326a1.516,1.516,0,1,0,1.512-1.628A1.552,1.552,0,0,0,179.2,68.326Zm.049,0a1.528,1.528,0,0,1,1.446-1.574,1.57,1.57,0,1,1-1.446,1.574Z" transform="translate(-149.751 -54.767)"/>
    <path id="Path_407" data-name="Path 407" d="M181.1,69.8a1.2,1.2,0,1,0,1.2-1.306A1.252,1.252,0,0,0,181.1,69.8Zm.066,0a1.14,1.14,0,1,1,1.134,1.252A1.206,1.206,0,0,1,181.166,69.8Z" transform="translate(-151.339 -56.245)"/>
    <path id="Path_408" data-name="Path 408" d="M206.012,70.195H205.7V67.1h.411c.542,0,1.035.161,1.035.859a.8.8,0,0,1-.707.859l.9,1.377h-.394l-.855-1.359h-.082Zm0-1.664h.1c.362,0,.723-.072.723-.555,0-.5-.345-.555-.723-.555h-.1Z" transform="translate(-171.896 -55.097)"/>
    <path id="Path_409" data-name="Path 409" d="M205.533,66.9H205.5v3.148h.378V68.689h.049c0,.018.838,1.342.838,1.342l.411.018h.066s-.871-1.324-.9-1.4a.814.814,0,0,0,.69-.877c0-.59-.345-.877-1.068-.877Zm.411.072c.69,0,1,.268,1,.823a.75.75,0,0,1-.69.823h-.049s.838,1.288.9,1.377h-.329c0-.018-.838-1.342-.838-1.342l-.1-.018h-.033v1.359h-.263V66.972Z" transform="translate(-171.729 -54.933)"/>
    <path id="Path_410" data-name="Path 410" d="M207.433,68.7H207.4v1.181h.131c.345,0,.756-.072.756-.59,0-.537-.394-.59-.756-.59Zm.1.072c.362,0,.69.036.69.519,0,.465-.345.519-.69.519h-.066V68.772Z" transform="translate(-173.317 -56.411)"/>
    <path id="Path_411" data-name="Path 411" d="M225.328,67.1h.427l-1.331,1.449,1.38,1.646h-.444l-1.167-1.413-.082.089v1.342H223.8V67.1h.312v1.324Z" transform="translate(-187.022 -55.097)"/>
    <path id="Path_412" data-name="Path 412" d="M225.588,66.9h-.444s-1.085,1.181-1.167,1.288V66.9H223.6v3.148h.378V68.689a.236.236,0,0,0,.049-.036c.033.054,1.15,1.4,1.15,1.4l.46.018h.066s-1.364-1.646-1.413-1.681c.049-.036,1.364-1.467,1.364-1.467h-.066Zm-.066.072-1.3,1.413s1.265,1.52,1.348,1.628h-.378c0-.018-1.15-1.413-1.15-1.413l-.016-.018-.1.107s-.016,1.27-.016,1.324h-.263V66.989h.263v1.377l1.249-1.377A2.035,2.035,0,0,1,225.523,66.972Z" transform="translate(-186.855 -54.933)"/>
  </g>
</svg>
