<svg id="MasterCard" xmlns="http://www.w3.org/2000/svg" viewBox="0 0 65 41">
  <defs>
    <style>
      .cls-1 {
        fill: rgba(255,255,255,0);
      }

      .cls-2 {
        fill: #ffcb05;
      }

      .cls-3 {
        fill: #00a4e0;
      }

      .cls-4 {
        fill: #ef4123;
      }
    </style>
  </defs>
  <rect id="Rectangle_25" data-name="Rectangle 25" class="cls-1" width="65" height="41" transform="translate(0 0)"/>
  <g id="Group_562" data-name="Group 562" transform="translate(7.133 11.433)">
    <g id="Group_563" data-name="Group 563">
      <g id="Group_562-2" data-name="Group 562">
        <path id="Path_424" data-name="Path 424" class="cls-2" d="M262.846,4.225a5.635,5.635,0,0,1,7.3,4.215L274,7.653A9.564,9.564,0,0,0,261.6.492Z" transform="translate(-255.068)"/>
        <path id="Path_425" data-name="Path 425" class="cls-3" d="M3.226,110.522l2.609-2.949a5.624,5.624,0,0,1,0-8.424L3.226,96.2a9.561,9.561,0,0,0,0,14.322" transform="translate(0 -93.798)"/>
        <path id="Path_426" data-name="Path 426" class="cls-4" d="M270.044,428.1a5.623,5.623,0,0,1-5.51,4.5,5.551,5.551,0,0,1-1.785-.29l-1.248,3.735a9.577,9.577,0,0,0,12.4-7.151Z" transform="translate(-254.971 -417.411)"/>
      </g>
    </g>
    <path id="Path_427" data-name="Path 427" d="M858.6,210.008a6.8,6.8,0,0,1-.4-.774,5.862,5.862,0,0,1,2.926-7.625,5.872,5.872,0,0,1,5.393.392,5.758,5.758,0,0,1,2.407,2.906c.072.172.137.355.2.512Zm3.516-6.122a2.905,2.905,0,0,0-1.763,3.084l5.293-2.28A2.813,2.813,0,0,0,862.114,203.885Zm4.192,4.959a0,0,0,0,0,0,0l-.11-.075a3.114,3.114,0,0,1-1.431,1.2,2.781,2.781,0,0,1-3.069-.31l-.072.11a0,0,0,0,0,0,0l-1.343,2.01a5.823,5.823,0,0,0,1.066.584,5.824,5.824,0,0,0,7.006-2.152Z" transform="translate(-836.295 -196.108)"/>
    <path id="Path_428" data-name="Path 428" d="M1365.379,101.9v11.171l1.738.7-.986,2.3-1.917-.8a2.169,2.169,0,0,1-.944-.794,2.494,2.494,0,0,1-.37-1.383V101.9Z" transform="translate(-1328.871 -99.356)"/>
    <g id="Group_564" data-name="Group 564" transform="translate(38.341 5.034)">
      <path id="Path_429" data-name="Path 429" d="M1538.266,264.572a3.158,3.158,0,0,1,1.086-2.384l-1.783-1.987a5.836,5.836,0,0,0-.005,8.739l1.78-1.987A3.157,3.157,0,0,1,1538.266,264.572Z" transform="translate(-1535.6 -258.737)"/>
      <path id="Path_430" data-name="Path 430" d="M1696.755,463.624a3.178,3.178,0,0,1-1-.165l-.852,2.532a5.842,5.842,0,0,0,7.575-4.357l-2.617-.534A3.164,3.164,0,0,1,1696.755,463.624Z" transform="translate(-1690.922 -454.621)"/>
      <path id="Path_431" data-name="Path 431" d="M1697.25,201.6a5.886,5.886,0,0,0-1.85.3l.844,2.532a3.167,3.167,0,0,1,4.1,2.377l2.617-.529A5.839,5.839,0,0,0,1697.25,201.6Z" transform="translate(-1691.41 -201.6)"/>
    </g>
  </g>
</svg>
