<svg id="MasterCard" xmlns="http://www.w3.org/2000/svg" viewBox="0 0 65 41">
  <defs>
    <style>
      .cls-1 {
        fill: rgba(255,255,255,0);
      }

      .cls-2 {
        fill: #1174ce;
      }

      .cls-3 {
        fill: #0f549d;
      }

      .cls-4 {
        fill: #02375e;
      }

      .cls-5 {
        fill: #146643;
      }

      .cls-6 {
        fill: #1bcc38;
      }

      .cls-7 {
        fill: #329947;
      }

      .cls-8 {
        fill: #e20e37;
      }

      .cls-9 {
        fill: #b41f36;
      }

      .cls-10 {
        fill: #720a1e;
      }
    </style>
  </defs>
  <rect id="Rectangle_25" data-name="Rectangle 25" class="cls-1" width="65" height="41" transform="translate(0 0)"/>
  <g id="Group_559" data-name="Group 559" transform="translate(18.159 10.1)">
    <path id="Path_413" data-name="Path 413" class="cls-2" d="M4.069,0A3.843,3.843,0,0,0,0,4.069v7.373a2.2,2.2,0,0,0,2.2,1.58,1.956,1.956,0,0,0,2.059-1.915V7.373H7.516v3.686c0,2.059-2.633,3.112-4.548,3.112a4.927,4.927,0,0,1-2.92-.91V21.4h5.17a4.143,4.143,0,0,0,3.926-3.926V0Z"/>
    <path id="Path_414" data-name="Path 414" class="cls-3" d="M0,4.069v7.373a2.2,2.2,0,0,0,2.2,1.58,1.956,1.956,0,0,0,2.059-1.915V7.373H7.516v3.686c0,2.059-2.633,3.112-4.548,3.112a4.927,4.927,0,0,1-2.92-.91V21.4h5.17a4.143,4.143,0,0,0,3.926-3.926V0"/>
    <path id="Path_415" data-name="Path 415" class="cls-4" d="M7.468,123.2v3.686c0,2.059-2.633,3.112-4.548,3.112a4.927,4.927,0,0,1-2.92-.91v8.139H5.17A4.143,4.143,0,0,0,9.1,133.3" transform="translate(0 -115.827)"/>
    <path id="Path_416" data-name="Path 416" class="cls-5" d="M370.4,181.4h2.25a1.1,1.1,0,0,0,0-2.2H370.4Z" transform="translate(-348.234 -168.476)"/>
    <path id="Path_417" data-name="Path 417" class="cls-6" d="M348.117,0a3.806,3.806,0,0,0-4.069,4.021V7.373h6.032a1.58,1.58,0,1,1,0,3.16,1.622,1.622,0,0,1,1.724,1.532A1.594,1.594,0,0,1,350.08,13.6H344v7.8h5.17a4.143,4.143,0,0,0,3.926-3.926V0Z" transform="translate(-323.414)"/>
    <path id="Path_418" data-name="Path 418" class="cls-7" d="M344,4.069v3.3h6.032a1.58,1.58,0,0,1,0,3.16,1.622,1.622,0,0,1,1.723,1.532,1.594,1.594,0,0,1-1.723,1.532H344v7.8h5.17a4.143,4.143,0,0,0,3.926-3.926V0" transform="translate(-323.414)"/>
    <g id="Group_559-2" data-name="Group 559" transform="translate(20.586 8.043)">
      <path id="Path_419" data-name="Path 419" class="cls-5" d="M351.612,149.6a1.594,1.594,0,0,1-1.58,1.58,1.622,1.622,0,0,1,1.723,1.532,1.594,1.594,0,0,1-1.723,1.532H344v7.8h5.17a4.143,4.143,0,0,0,3.926-3.926" transform="translate(-344 -148.69)"/>
      <path id="Path_420" data-name="Path 420" class="cls-5" d="M373.7,135.5a1.147,1.147,0,0,0-1.1-1.1h-2.2v2.154h2.25A1.063,1.063,0,0,0,373.7,135.5Z" transform="translate(-368.82 -134.4)"/>
    </g>
    <path id="Path_421" data-name="Path 421" class="cls-8" d="M175.269,0A3.806,3.806,0,0,0,171.2,4.021V8.139a3.265,3.265,0,0,1,2.059-.814h5.458V8.474a17.029,17.029,0,0,0-3.16-.431,2.442,2.442,0,1,0,0,4.883,16.1,16.1,0,0,0,3.16-.383V13.6h-5.458a2.935,2.935,0,0,1-2.059-.814V21.4h5.17a4.143,4.143,0,0,0,3.926-3.926V0Z" transform="translate(-160.955)"/>
    <path id="Path_422" data-name="Path 422" class="cls-9" d="M171.2,4.069V8.187a3.265,3.265,0,0,1,2.059-.814h5.458V8.522a17.029,17.029,0,0,0-3.16-.431,2.442,2.442,0,0,0,0,4.883,16.1,16.1,0,0,0,3.16-.383V13.6h-5.458a2.935,2.935,0,0,1-2.059-.814V21.4h5.17a4.143,4.143,0,0,0,3.926-3.926V0" transform="translate(-160.955)"/>
    <path id="Path_423" data-name="Path 423" class="cls-10" d="M178.716,123.2v1.149a17.029,17.029,0,0,0-3.16-.431,2.442,2.442,0,0,0,0,4.883,16.1,16.1,0,0,0,3.16-.383v1.005h-5.458a2.935,2.935,0,0,1-2.059-.814v8.617h5.17A4.143,4.143,0,0,0,180.3,133.3" transform="translate(-160.955 -115.827)"/>
  </g>
</svg>
