<svg xmlns="http://www.w3.org/2000/svg" viewBox="0 0 91 11">
  <defs>
    <style>
      .cls-1, .cls-3 {
        fill: #5f6368;
      }

      .cls-1, .cls-2 {
        fill-rule: evenodd;
      }

      .cls-2 {
        fill: #fffffe;
      }

      .cls-4 {
        fill: #4285f4;
      }

      .cls-5 {
        fill: #34a853;
      }

      .cls-6 {
        fill: #fabb05;
      }

      .cls-7 {
        fill: #e94235;
      }

      .cls-8, .cls-9 {
        fill: #fff;
      }

      .cls-9 {
        stroke: #707070;
        stroke-width: 0.4px;
      }

      .cls-10 {
        fill: #eb610a;
      }

      .cls-11 {
        fill: #e30d17;
      }

      .cls-12 {
        fill: #f69f00;
      }

      .cls-13 {
        fill: #005098;
      }

      .cls-14 {
        fill: #f7a600;
      }

      .cls-15 {
        fill: #0064a7;
      }

      .cls-16 {
        stroke: none;
      }

      .cls-17 {
        fill: none;
      }
    </style>
  </defs>
  <g id="Marks" transform="translate(0)">
    <g id="Google-Pay-Mark" transform="translate(55.734)">
      <path id="Path_87" data-name="Path 87" class="cls-1" d="M15.194.015H1.323l-.144,0A2.027,2.027,0,0,0,.865.046a1.036,1.036,0,0,0-.3.1A1.018,1.018,0,0,0,.128.6a1.107,1.107,0,0,0-.1.307A2.218,2.218,0,0,0,0,1.229Q0,1.3,0,1.378V9.653Q0,9.727,0,9.8a2.211,2.211,0,0,0,.028.323,1.105,1.105,0,0,0,.1.307,1.016,1.016,0,0,0,.439.451,1.028,1.028,0,0,0,.3.1,2.032,2.032,0,0,0,.314.028l.144,0H15.366l.144,0a2.059,2.059,0,0,0,.314-.028,1.038,1.038,0,0,0,.3-.1,1.014,1.014,0,0,0,.439-.451,1.1,1.1,0,0,0,.1-.307,2.214,2.214,0,0,0,.028-.323c0-.049,0-.1,0-.148V1.378q0-.074,0-.148a2.2,2.2,0,0,0-.028-.323,1.1,1.1,0,0,0-.1-.307,1.021,1.021,0,0,0-.439-.452,1.038,1.038,0,0,0-.3-.1A2.035,2.035,0,0,0,15.51.018l-.144,0h-.171" transform="translate(0 -0.015)"/>
      <path id="Path_88" data-name="Path 88" class="cls-2" d="M16.37,1.547h.169l.137,0a1.693,1.693,0,0,1,.26.023.683.683,0,0,1,.2.067.654.654,0,0,1,.283.292.732.732,0,0,1,.065.206,1.86,1.86,0,0,1,.022.268c0,.046,0,.093,0,.141v8.271c0,.046,0,.093,0,.14a1.855,1.855,0,0,1-.022.269.727.727,0,0,1-.065.2.654.654,0,0,1-.283.292.68.68,0,0,1-.2.067,1.752,1.752,0,0,1-.259.023l-.139,0H2.5l-.136,0a1.764,1.764,0,0,1-.26-.023.683.683,0,0,1-.2-.067A.639.639,0,0,1,1.74,11.6a.658.658,0,0,1-.119-.168.733.733,0,0,1-.065-.206,1.887,1.887,0,0,1-.022-.268q0-.07,0-.14V2.545c0-.047,0-.094,0-.141a1.879,1.879,0,0,1,.022-.269.727.727,0,0,1,.065-.206A.653.653,0,0,1,1.9,1.639a.68.68,0,0,1,.2-.067,1.724,1.724,0,0,1,.26-.023l.137,0H16.37" transform="translate(-1.176 -1.18)"/>
      <g id="Group_33" data-name="Group 33" transform="translate(1.86 3.108)">
        <path id="Path_89" data-name="Path 89" class="cls-3" d="M32.589,14.741V16.07h.795a.618.618,0,0,0,.47-.2.663.663,0,0,0,0-.931.61.61,0,0,0-.47-.2h-.8Zm0,1.8V18.08h-.475V14.273h1.259a1.121,1.121,0,0,1,.815.33,1.122,1.122,0,0,1,0,1.611,1.118,1.118,0,0,1-.815.324h-.784Zm2.42.744a.4.4,0,0,0,.158.319.568.568,0,0,0,.369.128.746.746,0,0,0,.534-.229.725.725,0,0,0,.235-.537.955.955,0,0,0-.619-.181.786.786,0,0,0-.482.144.429.429,0,0,0-.194.356m.614-1.893a1.158,1.158,0,0,1,.831.29,1.047,1.047,0,0,1,.3.8V18.08H36.3v-.361h-.021a.9.9,0,0,1-.784.446,1,1,0,0,1-.7-.255.826.826,0,0,1-.281-.638.783.783,0,0,1,.3-.643,1.226,1.226,0,0,1,.792-.239,1.369,1.369,0,0,1,.7.159v-.112a.565.565,0,0,0-.2-.433.661.661,0,0,0-.459-.178.722.722,0,0,0-.63.346L34.6,15.9a1.155,1.155,0,0,1,1.022-.51m3.741.085L37.78,19.228h-.49l.588-1.313-1.042-2.44h.516l.753,1.872h.01l.733-1.872Z" transform="translate(-26.508 -13.968)"/>
        <path id="Path_90" data-name="Path 90" class="cls-4" d="M19.172,20.934a2.677,2.677,0,0,0-.036-.445h-2v.842H18.28a1.015,1.015,0,0,1-.424.665v.547h.684a2.173,2.173,0,0,0,.632-1.61" transform="translate(-15.01 -18.697)"/>
        <path id="Path_91" data-name="Path 91" class="cls-5" d="M10.87,25.657a2,2,0,0,0,1.407-.528l-.684-.547a1.253,1.253,0,0,1-.723.209,1.275,1.275,0,0,1-1.192-.9H8.973v.564a2.117,2.117,0,0,0,1.9,1.205" transform="translate(-8.747 -21.282)"/>
        <path id="Path_92" data-name="Path 92" class="cls-6" d="M8.931,19.436a1.352,1.352,0,0,1,0-.837v-.564H8.226a2.246,2.246,0,0,0,0,1.965l.705-.564Z" transform="translate(-8 -16.83)"/>
        <path id="Path_93" data-name="Path 93" class="cls-7" d="M10.87,13.866a1.135,1.135,0,0,1,.815.328h0l.606-.624A2.008,2.008,0,0,0,10.87,13a2.117,2.117,0,0,0-1.9,1.2l.7.564a1.275,1.275,0,0,1,1.192-.9" transform="translate(-8.747 -13)"/>
      </g>
    </g>
    <g id="Apple_Pay_Mark_RGB_052318" transform="translate(74.311)">
      <path id="XMLID_96_" d="M15.194,0H1.323L1.179,0A2.037,2.037,0,0,0,.865.031a1.039,1.039,0,0,0-.3.1,1,1,0,0,0-.254.19A1.029,1.029,0,0,0,.128.584a1.109,1.109,0,0,0-.1.307A2.2,2.2,0,0,0,0,1.214c0,.049,0,.1,0,.148s0,.117,0,.176V9.461c0,.059,0,.117,0,.176s0,.1,0,.148a2.2,2.2,0,0,0,.028.323,1.108,1.108,0,0,0,.1.307,1.027,1.027,0,0,0,.185.262,1,1,0,0,0,.254.19,1.035,1.035,0,0,0,.3.1A2.052,2.052,0,0,0,1.179,11l.144,0H15.365l.144,0a2.058,2.058,0,0,0,.314-.028,1.035,1.035,0,0,0,.3-.1,1,1,0,0,0,.254-.19,1.033,1.033,0,0,0,.185-.262,1.1,1.1,0,0,0,.1-.307,2.2,2.2,0,0,0,.028-.323c0-.049,0-.1,0-.148s0-.117,0-.176V1.539c0-.059,0-.118,0-.176s0-.1,0-.148a2.2,2.2,0,0,0-.028-.323,1.1,1.1,0,0,0-.1-.307,1.035,1.035,0,0,0-.185-.262,1,1,0,0,0-.254-.19,1.04,1.04,0,0,0-.3-.1A2.042,2.042,0,0,0,15.51,0l-.144,0Z" transform="translate(0)"/>
      <path id="XMLID_227_" class="cls-8" d="M18.37,3.532h.169l.137,0a1.73,1.73,0,0,1,.26.023.689.689,0,0,1,.2.067.646.646,0,0,1,.163.122.667.667,0,0,1,.119.169.729.729,0,0,1,.065.206,1.875,1.875,0,0,1,.022.268c0,.047,0,.093,0,.141s0,.116,0,.174v7.922c0,.058,0,.116,0,.175s0,.093,0,.14a1.873,1.873,0,0,1-.022.269.726.726,0,0,1-.065.205.663.663,0,0,1-.119.169.642.642,0,0,1-.164.123.683.683,0,0,1-.2.067,1.76,1.76,0,0,1-.259.023l-.139,0H4.5l-.136,0a1.763,1.763,0,0,1-.26-.023.686.686,0,0,1-.2-.068.64.64,0,0,1-.164-.122.659.659,0,0,1-.119-.169.735.735,0,0,1-.065-.206,1.866,1.866,0,0,1-.022-.268c0-.047,0-.094,0-.141V4.53c0-.047,0-.094,0-.141a1.868,1.868,0,0,1,.022-.268.734.734,0,0,1,.065-.206.661.661,0,0,1,.119-.168A.645.645,0,0,1,3.9,3.624a.688.688,0,0,1,.2-.067,1.728,1.728,0,0,1,.261-.023l.137,0H18.37" transform="translate(-3.176 -3.165)"/>
      <g id="XMLID_34_" transform="translate(2.116 3.036)">
        <g id="XMLID_44_">
          <path id="XMLID_46_" d="M38.013,29.927a.968.968,0,0,0,.212-.677.927.927,0,0,0-.823.974.755.755,0,0,0,.611-.3" transform="translate(-35.742 -29.25)"/>
          <path id="XMLID_45_" d="M23.464,39.067c-.338-.021-.625.2-.786.2s-.408-.187-.675-.182a.992.992,0,0,0-.846.529,2.239,2.239,0,0,0,.257,2.123c.171.259.378.545.65.535.257-.01.358-.171.67-.171s.4.171.675.166.459-.26.63-.519a2.336,2.336,0,0,0,.282-.6.939.939,0,0,1-.549-.857.963.963,0,0,1,.443-.8.956.956,0,0,0-.751-.42" transform="translate(-20.983 -38.046)"/>
        </g>
        <g id="XMLID_35_" transform="translate(4.429 0.297)">
          <path id="XMLID_41_" d="M66.328,32.11a1.2,1.2,0,0,1,1.245,1.279,1.217,1.217,0,0,1-1.263,1.284H65.5V36h-.587V32.11ZM65.5,34.166h.674a.774.774,0,1,0,0-1.546H65.5Z" transform="translate(-64.911 -32.11)"/>
          <path id="XMLID_38_" d="M92.764,44.12c0-.5.37-.785,1.051-.828l.731-.046v-.216c0-.316-.2-.488-.561-.488a.517.517,0,0,0-.556.4H92.9a.99.99,0,0,1,1.1-.872c.671,0,1.109.362,1.109.923v1.937h-.543V44.46h-.013a.962.962,0,0,1-.865.5A.84.84,0,0,1,92.764,44.12Zm1.782-.251V43.65l-.653.043c-.367.024-.558.165-.558.41s.2.391.511.391A.647.647,0,0,0,94.546,43.869Z" transform="translate(-89.956 -41.033)"/>
          <path id="XMLID_36_" d="M118.544,46.271V45.8a1.679,1.679,0,0,0,.173.011c.259,0,.406-.113.5-.4l.052-.173-.993-2.833h.613l.692,2.3h.013l.692-2.3h.6l-1.03,2.976c-.236.683-.506.907-1.077.907A1.56,1.56,0,0,1,118.544,46.271Z" transform="translate(-112.891 -41.335)"/>
        </g>
      </g>
    </g>
    <g id="MasterCard" transform="translate(37.156)">
      <g id="Rectangle_25" data-name="Rectangle 25" class="cls-9" transform="translate(0)">
        <rect class="cls-16" width="16.689" height="11" rx="1"/>
        <rect class="cls-17" x="0.2" y="0.2" width="16.289" height="10.6" rx="0.8"/>
      </g>
      <g id="Group_34" data-name="Group 34" transform="translate(4.124 2.264)">
        <g id="Group_34-2" data-name="Group 34" transform="translate(0.424 5.663)">
          <path id="Path_94" data-name="Path 94" d="M13.811,174.178a.259.259,0,0,0-.086-.058.285.285,0,0,0-.109-.02.488.488,0,0,0-.066.007.248.248,0,0,0-.066.02.356.356,0,0,0-.06.037.222.222,0,0,0-.05.061.222.222,0,0,0-.093-.092.261.261,0,0,0-.136-.034.3.3,0,0,0-.053,0,.244.244,0,0,0-.053.017.213.213,0,0,0-.053.031.216.216,0,0,0-.043.051v-.085H12.8v.7h.146v-.392a.184.184,0,0,1,.013-.078.189.189,0,0,1,.036-.058.129.129,0,0,1,.053-.034.209.209,0,0,1,.066-.014.14.14,0,0,1,.113.048.207.207,0,0,1,.04.136v.392h.146v-.392a.184.184,0,0,1,.013-.078.189.189,0,0,1,.036-.058.129.129,0,0,1,.053-.034.209.209,0,0,1,.066-.014.14.14,0,0,1,.113.048.207.207,0,0,1,.04.136v.392h.146v-.443a.307.307,0,0,0-.02-.112A.17.17,0,0,0,13.811,174.178Z" transform="translate(-12.8 -173.834)"/>
          <path id="Path_95" data-name="Path 95" d="M50.16,174.3a.243.243,0,0,0-.089-.075.247.247,0,0,0-.126-.027.359.359,0,0,0-.136.027.311.311,0,0,0-.109.078.378.378,0,0,0-.073.116.429.429,0,0,0-.027.15.444.444,0,0,0,.027.15.341.341,0,0,0,.073.116.324.324,0,0,0,.109.078.359.359,0,0,0,.136.027.277.277,0,0,0,.126-.027.243.243,0,0,0,.089-.075v.085h.149v-.7H50.16Zm-.007.354a.2.2,0,0,1-.043.072.16.16,0,0,1-.066.048.225.225,0,0,1-.083.017.216.216,0,0,1-.086-.017.238.238,0,0,1-.066-.048.247.247,0,0,1-.04-.072.3.3,0,0,1,0-.177.247.247,0,0,1,.04-.072.16.16,0,0,1,.066-.048.178.178,0,0,1,.086-.017.212.212,0,0,1,.083.017.185.185,0,0,1,.066.048.254.254,0,0,1,.043.072.245.245,0,0,1,0,.177Z" transform="translate(-48.38 -173.931)"/>
          <path id="Path_96" data-name="Path 96" d="M75.843,174.568a.384.384,0,0,0-.176-.068l-.07-.01a.222.222,0,0,0-.043-.007.117.117,0,0,1-.036-.014.145.145,0,0,1-.023-.02.042.042,0,0,1-.01-.031.073.073,0,0,1,.033-.061.155.155,0,0,1,.1-.024.4.4,0,0,1,.063.007c.02,0,.04.01.06.014a.382.382,0,0,1,.05.02.443.443,0,0,1,.04.02l.063-.119a.43.43,0,0,0-.126-.055.551.551,0,0,0-.152-.02.439.439,0,0,0-.119.017.247.247,0,0,0-.089.044.232.232,0,0,0-.056.072.212.212,0,0,0-.02.1.169.169,0,0,0,.06.136.325.325,0,0,0,.172.068l.073.01a.317.317,0,0,1,.089.027.06.06,0,0,1,.03.051.066.066,0,0,1-.04.061.22.22,0,0,1-.116.024.53.53,0,0,1-.076-.007.252.252,0,0,1-.06-.017.171.171,0,0,1-.05-.024c-.013-.01-.027-.017-.04-.027l-.07.116a.311.311,0,0,0,.08.048.736.736,0,0,0,.08.027.673.673,0,0,0,.073.014.414.414,0,0,0,.063,0,.524.524,0,0,0,.133-.017.273.273,0,0,0,.1-.048.2.2,0,0,0,.06-.072.207.207,0,0,0,.02-.092A.167.167,0,0,0,75.843,174.568Z" transform="translate(-73.229 -173.931)"/>
          <path id="Path_97" data-name="Path 97" d="M117.08,174.2a.278.278,0,0,0-.1-.075.33.33,0,0,0-.133-.027.376.376,0,0,0-.139.027.351.351,0,0,0-.109.075.369.369,0,0,0-.07.116.429.429,0,0,0-.027.15.464.464,0,0,0,.027.153.3.3,0,0,0,.073.116.3.3,0,0,0,.109.075.381.381,0,0,0,.143.027.527.527,0,0,0,.149-.02.335.335,0,0,0,.133-.078l-.073-.109a.337.337,0,0,1-.1.054.276.276,0,0,1-.1.02.246.246,0,0,1-.07-.01.166.166,0,0,1-.06-.031.248.248,0,0,1-.046-.054.215.215,0,0,1-.027-.082h.507c0-.01,0-.017,0-.027v-.031a.43.43,0,0,0-.023-.15A.344.344,0,0,0,117.08,174.2Zm-.418.208a.287.287,0,0,1,.02-.072.219.219,0,0,1,.036-.054.129.129,0,0,1,.053-.034.211.211,0,0,1,.07-.014.155.155,0,0,1,.116.044.211.211,0,0,1,.056.129Z" transform="translate(-113.063 -173.834)"/>
          <path id="Path_98" data-name="Path 98" d="M177.66,174.3a.243.243,0,0,0-.089-.075.247.247,0,0,0-.126-.027.359.359,0,0,0-.136.027.311.311,0,0,0-.109.078.377.377,0,0,0-.073.116.429.429,0,0,0-.027.15.444.444,0,0,0,.027.15.34.34,0,0,0,.073.116.324.324,0,0,0,.109.078.359.359,0,0,0,.136.027.277.277,0,0,0,.126-.027.273.273,0,0,0,.089-.075v.085h.149v-.7h-.149Zm-.007.354a.2.2,0,0,1-.043.072.16.16,0,0,1-.066.048.225.225,0,0,1-.083.017.216.216,0,0,1-.086-.017.219.219,0,0,1-.066-.048.246.246,0,0,1-.04-.072.3.3,0,0,1,0-.177.246.246,0,0,1,.04-.072.16.16,0,0,1,.066-.048.178.178,0,0,1,.086-.017.212.212,0,0,1,.083.017.185.185,0,0,1,.066.048.254.254,0,0,1,.043.072.245.245,0,0,1,0,.177Z" transform="translate(-171.655 -173.931)"/>
          <path id="Path_99" data-name="Path 99" d="M97.467,169.08a.169.169,0,0,1-.07.014.164.164,0,0,1-.043-.007.076.076,0,0,1-.033-.024.119.119,0,0,1-.023-.041.169.169,0,0,1-.01-.061v-.306h.239v-.14h-.239V168.3h-.149v.215H97v.14h.136v.31a.292.292,0,0,0,.066.208.242.242,0,0,0,.182.068.308.308,0,0,0,.116-.02c.023-.01.043-.02.063-.031l-.05-.129Z" transform="translate(-94.21 -168.232)"/>
          <path id="Path_100" data-name="Path 100" d="M142.035,174.1a.239.239,0,0,0-.113.024.272.272,0,0,0-.086.089v-.092H141.7v.7h.136v-.388a.211.211,0,0,1,.013-.082.139.139,0,0,1,.033-.058.151.151,0,0,1,.053-.037.209.209,0,0,1,.066-.014.456.456,0,0,1,.06.007c.01,0,.02,0,.03.007l.043-.146-.036-.01C142.081,174.1,142.058,174.1,142.035,174.1Z" transform="translate(-137.428 -173.834)"/>
          <path id="Path_101" data-name="Path 101" d="M204.835,174.1a.239.239,0,0,0-.113.024.271.271,0,0,0-.086.089v-.092H204.5v.7h.136v-.388a.211.211,0,0,1,.013-.082.139.139,0,0,1,.033-.058.151.151,0,0,1,.053-.037.209.209,0,0,1,.066-.014.456.456,0,0,1,.06.007c.01,0,.02,0,.03.007l.043-.146-.036-.01C204.878,174.1,204.858,174.1,204.835,174.1Z" transform="translate(-198.147 -173.834)"/>
          <path id="Path_102" data-name="Path 102" d="M219.36,166.3v.371a.244.244,0,0,0-.089-.075.247.247,0,0,0-.126-.027.359.359,0,0,0-.136.027.311.311,0,0,0-.109.078.378.378,0,0,0-.073.116.429.429,0,0,0-.027.15.444.444,0,0,0,.027.15.341.341,0,0,0,.073.116.324.324,0,0,0,.109.078.359.359,0,0,0,.136.027.277.277,0,0,0,.126-.027.243.243,0,0,0,.089-.075v.085h.149V166.3h-.149Zm-.007.725a.2.2,0,0,1-.043.072.16.16,0,0,1-.066.048.225.225,0,0,1-.083.017.217.217,0,0,1-.086-.017.239.239,0,0,1-.066-.048.246.246,0,0,1-.04-.072.3.3,0,0,1,0-.177.247.247,0,0,1,.04-.072.16.16,0,0,1,.066-.048.178.178,0,0,1,.086-.017.212.212,0,0,1,.083.017.185.185,0,0,1,.066.048.255.255,0,0,1,.043.072.245.245,0,0,1,0,.177Z" transform="translate(-211.973 -166.3)"/>
          <path id="Path_103" data-name="Path 103" d="M156.509,174.308a.256.256,0,0,1,.07-.048.229.229,0,0,1,.086-.017h0a.265.265,0,0,1,.093.017.2.2,0,0,1,.073.044l.073-.123a.281.281,0,0,0-.093-.054.348.348,0,0,0-.146-.027.4.4,0,0,0-.146.027.353.353,0,0,0-.116.078.333.333,0,0,0-.076.116.359.359,0,0,0-.027.146.41.41,0,0,0,.027.146.348.348,0,0,0,.076.116.391.391,0,0,0,.116.078.349.349,0,0,0,.146.027.4.4,0,0,0,.146-.027.372.372,0,0,0,.093-.054l-.073-.123a.177.177,0,0,1-.073.044.281.281,0,0,1-.093.017h0a.243.243,0,0,1-.086-.017.2.2,0,0,1-.07-.048.263.263,0,0,1-.046-.072.263.263,0,0,1,0-.184A.787.787,0,0,1,156.509,174.308Z" transform="translate(-151.544 -173.834)"/>
        </g>
        <g id="Group_35" data-name="Group 35" transform="translate(8.199 6.548)">
          <path id="Path_104" data-name="Path 104" d="M247.476,192.3a.061.061,0,0,1,.026.007.06.06,0,0,1,.023.017.144.144,0,0,1,.017.024.081.081,0,0,1,.007.027.065.065,0,0,1-.007.027.061.061,0,0,1-.017.024.139.139,0,0,1-.023.017.076.076,0,0,1-.026.007.094.094,0,0,1-.03-.007.059.059,0,0,1-.023-.017.142.142,0,0,1-.017-.024.082.082,0,0,1-.007-.027.066.066,0,0,1,.007-.027.061.061,0,0,1,.017-.024.141.141,0,0,1,.023-.017A.1.1,0,0,1,247.476,192.3Zm0,.126a.041.041,0,0,0,.02,0l.017-.01a.073.073,0,0,0,.01-.017.064.064,0,0,0,0-.041c0-.007-.007-.01-.01-.017a.071.071,0,0,0-.017-.01.06.06,0,0,0-.04,0l-.017.01a.075.075,0,0,0-.01.017.064.064,0,0,0,0,.041c0,.007.007.01.01.017a.071.071,0,0,0,.017.01C247.463,192.423,247.47,192.426,247.476,192.426Zm0-.085a.027.027,0,0,1,.02.007.026.026,0,0,1,.007.017c0,.007,0,.01,0,.014a.017.017,0,0,1-.013.007l.02.024h-.023l-.017-.024h0v.024h-.017v-.065h.03Zm-.013.017v.01h.02l0,0s0,0,0,0h-.02Z" transform="translate(-247.4 -192.3)"/>
        </g>
        <g id="Group_36" data-name="Group 36">
          <ellipse id="Ellipse_3" data-name="Ellipse 3" class="cls-10" cx="0.981" cy="2.08" rx="0.981" ry="2.08" transform="translate(3.205 0.575)"/>
          <path id="Path_105" data-name="Path 105" class="cls-11" d="M3.2,2.656A2.677,2.677,0,0,1,4.186.575,2.518,2.518,0,0,0,2.585,0,2.62,2.62,0,0,0,0,2.656,2.62,2.62,0,0,0,2.585,5.312a2.536,2.536,0,0,0,1.6-.572A2.687,2.687,0,0,1,3.2,2.656Z"/>
          <path id="Path_106" data-name="Path 106" class="cls-12" d="M246.53,117.3v-.078h-.03v-.02h.083v.02h-.033v.078Zm.159,0v-.068l-.023.058h-.023l-.023-.058v.068H246.6v-.1h.033l.023.065.023-.065h.033v.1Z" transform="translate(-238.331 -113.209)"/>
          <path id="Path_107" data-name="Path 107" class="cls-12" d="M127.9,0a2.536,2.536,0,0,0-1.6.572,2.7,2.7,0,0,1,0,4.161,2.536,2.536,0,0,0,1.6.572,2.62,2.62,0,0,0,2.585-2.656A2.616,2.616,0,0,0,127.9,0Z" transform="translate(-122.114)"/>
        </g>
      </g>
    </g>
    <g id="Visa" transform="translate(18.578)">
      <g id="Rectangle_25-2" data-name="Rectangle 25" class="cls-9" transform="translate(0)">
        <rect class="cls-16" width="16.689" height="11" rx="1"/>
        <rect class="cls-17" x="0.2" y="0.2" width="16.289" height="10.6" rx="0.8"/>
      </g>
      <g id="Group_37" data-name="Group 37" transform="translate(2.374 3.571)">
        <path id="Path_108" data-name="Path 108" class="cls-13" d="M61.9,4.6,62.515.9H63.5l-.615,3.7Z" transform="translate(-57.624 -0.836)"/>
        <path id="Path_109" data-name="Path 109" class="cls-13" d="M87.95.156A2.388,2.388,0,0,0,87.072,0c-.974,0-1.658.5-1.658,1.221-.007.532.49.83.863,1.008s.511.3.511.461c0,.248-.3.362-.587.362a2.065,2.065,0,0,1-.926-.192L85.138,2.8,85,3.627a3.031,3.031,0,0,0,1.1.2c1.036,0,1.706-.5,1.713-1.263.007-.419-.256-.745-.822-1.008-.345-.17-.553-.284-.553-.461,0-.156.18-.319.56-.319a1.662,1.662,0,0,1,.732.142l.09.043.131-.8" transform="translate(-79.129)"/>
        <path id="Path_110" data-name="Path 110" class="cls-13" d="M127.335,1h-.76a.49.49,0,0,0-.518.305L124.6,4.7h1.029s.166-.454.207-.554h1.257c.028.128.117.554.117.554h.912L127.335,1m-1.209,2.385c.083-.213.394-1.036.394-1.036s.083-.213.131-.355l.069.319s.187.887.228,1.072Z" transform="translate(-115.993 -0.929)"/>
        <path id="Path_111" data-name="Path 111" class="cls-13" d="M17.325.9l-.967,2.527-.1-.511A2.84,2.84,0,0,0,14.9,1.361L15.777,4.6H16.82L18.368.9H17.325" transform="translate(-13.871 -0.836)"/>
        <path id="Path_112" data-name="Path 112" class="cls-14" d="M1.6.9H.014L0,.978A3.274,3.274,0,0,1,2.39,2.916l-.345-1.7A.416.416,0,0,0,1.6.9" transform="translate(0 -0.836)"/>
      </g>
    </g>
    <g id="Dinners" transform="translate(0)">
      <g id="Rectangle_25-3" data-name="Rectangle 25" class="cls-9">
        <rect class="cls-16" width="16.689" height="11" rx="1"/>
        <rect class="cls-17" x="0.2" y="0.2" width="16.289" height="10.6" rx="0.8"/>
      </g>
      <g id="Group_38" data-name="Group 38" transform="translate(4.755 2.638)">
        <path id="Path_113" data-name="Path 113" class="cls-15" d="M4.092,5.692A2.91,2.91,0,0,0,6.987,2.87,2.86,2.86,0,0,0,4.092,0h-1.3A2.769,2.769,0,0,0,0,2.87,2.813,2.813,0,0,0,2.793,5.692Z"/>
        <path id="Path_114" data-name="Path 114" class="cls-8" d="M7.011,7.542V4.463a1.662,1.662,0,0,1,0,3.079M4.827,6.006A1.658,1.658,0,0,1,5.855,4.463V7.542A1.651,1.651,0,0,1,4.827,6.006M6.436,3.4A2.573,2.573,0,0,0,3.9,6.006,2.573,2.573,0,0,0,6.436,8.612,2.573,2.573,0,0,0,8.973,6.006,2.573,2.573,0,0,0,6.436,3.4" transform="translate(-3.636 -3.164)"/>
      </g>
    </g>
  </g>
</svg>
