<svg id="MasterCard" xmlns="http://www.w3.org/2000/svg" viewBox="0 0 65 41">
  <defs>
    <style>
      .cls-1 {
        fill: rgba(255,255,255,0);
      }

      .cls-2 {
        fill: #eb610a;
      }

      .cls-3 {
        fill: #e30d17;
      }

      .cls-4 {
        fill: #f69f00;
      }
    </style>
  </defs>
  <rect id="Rectangle_25" data-name="Rectangle 25" class="cls-1" width="65" height="41" transform="translate(0 0)"/>
  <g id="Group_34" data-name="Group 34" transform="translate(16.062 8.584)">
    <g id="Group_34-2" data-name="Group 34" transform="translate(1.652 21.465)">
      <path id="Path_94" data-name="Path 94" d="M16.737,174.4a1.009,1.009,0,0,0-.336-.219,1.136,1.136,0,0,0-.426-.077,1.947,1.947,0,0,0-.258.026.985.985,0,0,0-.258.077,1.394,1.394,0,0,0-.232.142.845.845,0,0,0-.194.232.854.854,0,0,0-.361-.349,1.038,1.038,0,0,0-.529-.129,1.18,1.18,0,0,0-.207.013.963.963,0,0,0-.207.065.835.835,0,0,0-.207.116.826.826,0,0,0-.168.194v-.323H12.8v2.672h.568v-1.484a.68.68,0,0,1,.052-.3.717.717,0,0,1,.142-.219.505.505,0,0,1,.207-.129.834.834,0,0,1,.258-.052.554.554,0,0,1,.439.181.771.771,0,0,1,.155.516v1.484h.568v-1.484a.68.68,0,0,1,.052-.3.717.717,0,0,1,.142-.219.505.505,0,0,1,.207-.129.834.834,0,0,1,.258-.052.554.554,0,0,1,.439.181.771.771,0,0,1,.155.516v1.484h.568v-1.678a1.137,1.137,0,0,0-.077-.426A.64.64,0,0,0,16.737,174.4Z" transform="translate(-12.8 -173.093)"/>
      <path id="Path_95" data-name="Path 95" d="M51.781,174.587a.941.941,0,0,0-.348-.284.983.983,0,0,0-.49-.1,1.432,1.432,0,0,0-.529.1,1.21,1.21,0,0,0-.426.3,1.427,1.427,0,0,0-.284.439,1.589,1.589,0,0,0-.1.568,1.643,1.643,0,0,0,.1.568,1.288,1.288,0,0,0,.284.439,1.264,1.264,0,0,0,.426.3,1.432,1.432,0,0,0,.529.1,1.1,1.1,0,0,0,.49-.1.941.941,0,0,0,.348-.284v.323h.581v-2.672h-.581Zm-.026,1.342a.737.737,0,0,1-.168.271.624.624,0,0,1-.258.181.9.9,0,0,1-.323.064.864.864,0,0,1-.336-.064.717.717,0,0,1-.413-.452,1.117,1.117,0,0,1,0-.671.928.928,0,0,1,.155-.271.624.624,0,0,1,.258-.181.71.71,0,0,1,.336-.065.846.846,0,0,1,.323.065.72.72,0,0,1,.258.181.96.96,0,0,1,.168.271.9.9,0,0,1,0,.671Z" transform="translate(-44.85 -173.18)"/>
      <path id="Path_96" data-name="Path 96" d="M77.417,175.594a1.519,1.519,0,0,0-.684-.258l-.271-.039a.889.889,0,0,0-.168-.026.461.461,0,0,1-.142-.052.561.561,0,0,1-.09-.077.158.158,0,0,1-.039-.116.274.274,0,0,1,.129-.232.618.618,0,0,1,.374-.09,1.581,1.581,0,0,1,.245.026c.077.013.155.039.232.052a1.5,1.5,0,0,1,.194.077,1.72,1.72,0,0,1,.155.077l.245-.452a1.7,1.7,0,0,0-.49-.207,2.2,2.2,0,0,0-.594-.077,1.756,1.756,0,0,0-.465.065.973.973,0,0,0-.349.168.884.884,0,0,0-.219.271.786.786,0,0,0-.077.361.632.632,0,0,0,.232.516,1.286,1.286,0,0,0,.671.258l.284.039a1.261,1.261,0,0,1,.349.1.228.228,0,0,1,.116.194.248.248,0,0,1-.155.232.876.876,0,0,1-.452.09,2.116,2.116,0,0,1-.3-.026,1,1,0,0,1-.232-.065.673.673,0,0,1-.194-.09c-.052-.039-.1-.065-.155-.1l-.271.439a1.22,1.22,0,0,0,.31.181,2.9,2.9,0,0,0,.31.1,2.665,2.665,0,0,0,.284.052,1.644,1.644,0,0,0,.245.013,2.091,2.091,0,0,0,.516-.065,1.077,1.077,0,0,0,.387-.181.736.736,0,0,0,.31-.62A.624.624,0,0,0,77.417,175.594Z" transform="translate(-67.233 -173.18)"/>
      <path id="Path_97" data-name="Path 97" d="M118.759,174.487a1.083,1.083,0,0,0-.4-.284,1.315,1.315,0,0,0-.516-.1,1.5,1.5,0,0,0-.542.1,1.368,1.368,0,0,0-.426.284,1.391,1.391,0,0,0-.271.439,1.588,1.588,0,0,0-.1.568,1.717,1.717,0,0,0,.1.581,1.123,1.123,0,0,0,.284.439,1.176,1.176,0,0,0,.426.284,1.517,1.517,0,0,0,.555.1,2.106,2.106,0,0,0,.581-.077,1.312,1.312,0,0,0,.516-.3l-.284-.413a1.322,1.322,0,0,1-.374.207,1.1,1.1,0,0,1-.4.077.983.983,0,0,1-.271-.039.655.655,0,0,1-.232-.116.944.944,0,0,1-.181-.206.8.8,0,0,1-.1-.31h1.975c0-.039.013-.065.013-.1v-.116a1.59,1.59,0,0,0-.09-.568A1.293,1.293,0,0,0,118.759,174.487Zm-1.626.787a1.071,1.071,0,0,1,.077-.271.833.833,0,0,1,.142-.207.505.505,0,0,1,.207-.129.845.845,0,0,1,.271-.052.613.613,0,0,1,.452.168.791.791,0,0,1,.219.49Z" transform="translate(-103.115 -173.093)"/>
      <path id="Path_98" data-name="Path 98" d="M179.281,174.587a.941.941,0,0,0-.349-.284.983.983,0,0,0-.49-.1,1.432,1.432,0,0,0-.529.1,1.21,1.21,0,0,0-.426.3,1.427,1.427,0,0,0-.284.439,1.588,1.588,0,0,0-.1.568,1.643,1.643,0,0,0,.1.568,1.289,1.289,0,0,0,.284.439,1.264,1.264,0,0,0,.426.3,1.432,1.432,0,0,0,.529.1,1.1,1.1,0,0,0,.49-.1,1.058,1.058,0,0,0,.349-.284v.323h.581v-2.672h-.581Zm-.026,1.342a.737.737,0,0,1-.168.271.624.624,0,0,1-.258.181.9.9,0,0,1-.323.064.863.863,0,0,1-.336-.064.853.853,0,0,1-.258-.181.929.929,0,0,1-.155-.271,1.116,1.116,0,0,1,0-.671.929.929,0,0,1,.155-.271.624.624,0,0,1,.258-.181.71.71,0,0,1,.336-.065.846.846,0,0,1,.323.065.72.72,0,0,1,.258.181.907.907,0,0,1,.168.942Z" transform="translate(-155.893 -173.18)"/>
      <path id="Path_99" data-name="Path 99" d="M98.82,171.256a.675.675,0,0,1-.271.052.654.654,0,0,1-.168-.026.3.3,0,0,1-.129-.09.447.447,0,0,1-.09-.155.625.625,0,0,1-.039-.232v-1.162h.929v-.529h-.929V168.3h-.581v.813H97v.529h.529v1.175a1.09,1.09,0,0,0,.258.787.956.956,0,0,0,.71.258,1.227,1.227,0,0,0,.452-.077c.09-.039.168-.077.245-.116l-.194-.49C98.936,171.2,98.885,171.23,98.82,171.256Z" transform="translate(-86.132 -168.042)"/>
      <path id="Path_100" data-name="Path 100" d="M143,174.1a.954.954,0,0,0-.439.09,1.042,1.042,0,0,0-.336.336v-.349H141.7v2.672h.529v-1.471a.781.781,0,0,1,.052-.31.522.522,0,0,1,.129-.219.59.59,0,0,1,.207-.142.834.834,0,0,1,.258-.052,1.81,1.81,0,0,1,.232.026c.039.013.077.013.116.026l.168-.555c-.052-.013-.09-.026-.142-.039S143.094,174.1,143,174.1Z" transform="translate(-125.062 -173.093)"/>
      <path id="Path_101" data-name="Path 101" d="M205.8,174.1a.954.954,0,0,0-.439.09,1.042,1.042,0,0,0-.336.336v-.349H204.5v2.672h.529v-1.471a.781.781,0,0,1,.052-.31.521.521,0,0,1,.129-.219.589.589,0,0,1,.207-.142.834.834,0,0,1,.258-.052,1.811,1.811,0,0,1,.232.026c.039.013.077.013.116.026l.168-.555c-.052-.013-.09-.026-.142-.039C205.972,174.113,205.894,174.1,205.8,174.1Z" transform="translate(-179.756 -173.093)"/>
      <path id="Path_102" data-name="Path 102" d="M220.981,166.3v1.407a.941.941,0,0,0-.348-.284.983.983,0,0,0-.49-.1,1.432,1.432,0,0,0-.529.1,1.211,1.211,0,0,0-.426.3,1.428,1.428,0,0,0-.284.439,1.589,1.589,0,0,0-.1.568,1.643,1.643,0,0,0,.1.568,1.29,1.29,0,0,0,.284.439,1.263,1.263,0,0,0,.426.3,1.431,1.431,0,0,0,.529.1,1.1,1.1,0,0,0,.49-.1.941.941,0,0,0,.348-.284v.323h.581v-3.756h-.581Zm-.026,2.749a.737.737,0,0,1-.168.271.623.623,0,0,1-.258.181.9.9,0,0,1-.323.065.863.863,0,0,1-.336-.065.717.717,0,0,1-.413-.452,1.117,1.117,0,0,1,0-.671.93.93,0,0,1,.155-.271.623.623,0,0,1,.258-.181.71.71,0,0,1,.336-.065.845.845,0,0,1,.323.065.72.72,0,0,1,.258.181.907.907,0,0,1,.168.942Z" transform="translate(-192.211 -166.3)"/>
      <path id="Path_103" data-name="Path 103" d="M157.113,174.887a.993.993,0,0,1,.271-.181.914.914,0,0,1,.336-.065h0a1.059,1.059,0,0,1,.361.065.789.789,0,0,1,.284.168l.284-.465a1.1,1.1,0,0,0-.361-.207,1.389,1.389,0,0,0-.568-.1,1.589,1.589,0,0,0-.568.1,1.376,1.376,0,0,0-.452.3,1.26,1.26,0,0,0-.3.439,1.329,1.329,0,0,0-.1.555,1.518,1.518,0,0,0,.1.555,1.319,1.319,0,0,0,.3.439,1.525,1.525,0,0,0,.452.3,1.39,1.39,0,0,0,.568.1,1.589,1.589,0,0,0,.568-.1,1.451,1.451,0,0,0,.361-.207l-.284-.465a.693.693,0,0,1-.284.168,1.12,1.12,0,0,1-.361.065h0a.97.97,0,0,1-.336-.065.769.769,0,0,1-.271-.181,1,1,0,0,1-.181-.271.973.973,0,0,1,0-.7A2.977,2.977,0,0,1,157.113,174.887Z" transform="translate(-137.778 -173.093)"/>
    </g>
    <g id="Group_35" data-name="Group 35" transform="translate(31.933 24.821)">
      <path id="Path_104" data-name="Path 104" d="M247.7,192.3a.244.244,0,0,1,.1.026.232.232,0,0,1,.09.065.549.549,0,0,1,.065.09.3.3,0,0,1,.026.1.243.243,0,0,1-.026.1.232.232,0,0,1-.065.09.546.546,0,0,1-.09.065.3.3,0,0,1-.1.026.377.377,0,0,1-.116-.026.232.232,0,0,1-.09-.065.547.547,0,0,1-.065-.09.3.3,0,0,1-.026-.1.243.243,0,0,1,.026-.1.232.232,0,0,1,.065-.09.547.547,0,0,1,.09-.065A.377.377,0,0,1,247.7,192.3Zm0,.478a.164.164,0,0,0,.077-.013c.026-.013.039-.026.065-.039a.282.282,0,0,0,.039-.065.239.239,0,0,0,0-.155c-.013-.026-.026-.039-.039-.065a.281.281,0,0,0-.065-.039.238.238,0,0,0-.155,0c-.026.013-.039.026-.065.039a.283.283,0,0,0-.039.065.239.239,0,0,0,0,.155c.013.026.026.039.039.065a.283.283,0,0,0,.065.039C247.645,192.765,247.671,192.778,247.7,192.778Zm.013-.323a.109.109,0,0,1,.077.026.1.1,0,0,1,.026.065c0,.026,0,.039-.013.052a.067.067,0,0,1-.052.026l.077.09h-.09l-.065-.09h-.013v.09h-.065v-.245h.116Zm-.052.065v.039h.077l.013-.013c0-.013,0-.013-.013-.013h-.077Z" transform="translate(-247.4 -192.3)"/>
    </g>
    <g id="Group_36" data-name="Group 36">
      <ellipse id="Ellipse_3" data-name="Ellipse 3" class="cls-2" cx="3.821" cy="7.887" rx="3.821" ry="7.887" transform="translate(12.482 2.181)"/>
      <path id="Path_105" data-name="Path 105" class="cls-3" d="M12.482,10.068A10.045,10.045,0,0,1,16.3,2.181a10.062,10.062,0,1,0-6.234,17.954,10.047,10.047,0,0,0,6.247-2.168A10.082,10.082,0,0,1,12.482,10.068Z"/>
      <path id="Path_106" data-name="Path 106" class="cls-4" d="M246.616,117.574v-.3H246.5V117.2h.323v.077h-.129v.3Zm.62,0v-.258l-.09.219h-.09l-.09-.219v.258h-.09V117.2H247l.09.245.09-.245h.129v.374Z" transform="translate(-214.683 -102.072)"/>
      <path id="Path_107" data-name="Path 107" class="cls-4" d="M132.547,0A10.047,10.047,0,0,0,126.3,2.168a10.05,10.05,0,0,1,0,15.773A10.061,10.061,0,1,0,132.547,0Z" transform="translate(-109.998)"/>
    </g>
  </g>
</svg>
