<svg id="Visa" xmlns="http://www.w3.org/2000/svg" viewBox="0 0 65 41">
  <defs>
    <style>
      .cls-1 {
        fill: rgba(255,255,255,0);
      }

      .cls-2 {
        fill: #005098;
      }
    </style>
  </defs>
  <rect id="Rectangle_25" data-name="Rectangle 25" class="cls-1" width="65" height="41" transform="translate(0 0)"/>
  <g id="Group_37" data-name="Group 37" transform="translate(9.246 13.537)">
    <path id="Path_108" data-name="Path 108" class="cls-2" d="M61.9,14.944,64.294.9h3.82L65.72,14.944Z" transform="translate(-45.246 -0.658)"/>
    <path id="Path_109" data-name="Path 109" class="cls-2" d="M96.488.592A9.526,9.526,0,0,0,93.071,0c-3.793,0-6.457,1.91-6.457,4.627-.027,2.018,1.91,3.148,3.363,3.82,1.48.7,1.991,1.13,1.991,1.749,0,.942-1.184,1.372-2.287,1.372a8.229,8.229,0,0,1-3.605-.726l-.538-.242L85,13.748a12.089,12.089,0,0,0,4.278.753c4.036,0,6.645-1.883,6.672-4.789.027-1.587-1-2.825-3.2-3.82C91.4,5.246,90.6,4.816,90.6,4.143c0-.592.7-1.211,2.179-1.211a6.625,6.625,0,0,1,2.852.538l.35.161.511-3.04" transform="translate(-62.132)"/>
    <path id="Path_110" data-name="Path 110" class="cls-2" d="M135.254,1h-2.959a1.917,1.917,0,0,0-2.018,1.157L124.6,15.017h4.009s.646-1.722.807-2.1h4.9c.108.484.457,2.1.457,2.1h3.551L135.254,1m-4.708,9.04c.323-.807,1.534-3.928,1.534-3.928-.027.027.323-.807.511-1.345l.269,1.211s.726,3.363.888,4.062Z" transform="translate(-91.078 -0.731)"/>
    <path id="Path_111" data-name="Path 111" class="cls-2" d="M24.343.9l-3.767,9.578-.4-1.937A10.857,10.857,0,0,0,14.9,2.649l3.417,12.3h4.062L28.406.9H24.343" transform="translate(-10.891 -0.658)"/>
    <path id="Path_112" data-name="Path 112" class="cls-2" d="M6.215.9H.054L0,1.2C4.816,2.353,7.99,5.178,9.309,8.541L7.964,2.084A1.619,1.619,0,0,0,6.215.9" transform="translate(0 -0.658)"/>
  </g>
</svg>
